<svg width="21" height="21" viewBox="0 0 21 21" fill="none" xmlns="http://www.w3.org/2000/svg">
<path d="M8.0937 7.00005H1.5312C0.686852 7.00005 0 6.3132 0 5.4687V1.5312C0 0.686852 0.686852 0 1.5312 0H8.0937C8.9382 0 9.62505 0.686852 9.62505 1.5312V5.4687C9.62505 6.3132 8.9382 7.00005 8.0937 7.00005ZM1.5312 1.3125C1.41055 1.3125 1.3125 1.41055 1.3125 1.5312V5.4687C1.3125 5.5895 1.41055 5.68755 1.5312 5.68755H8.0937C8.2145 5.68755 8.31255 5.5895 8.31255 5.4687V1.5312C8.31255 1.41055 8.2145 1.3125 8.0937 1.3125H1.5312Z" fill="#19E336"/>
<path d="M8.0937 21.0001H1.5312C0.686852 21.0001 0 20.3132 0 19.4689V10.2814C0 9.43685 0.686852 8.75 1.5312 8.75H8.0937C8.9382 8.75 9.62505 9.43685 9.62505 10.2814V19.4689C9.62505 20.3132 8.9382 21.0001 8.0937 21.0001ZM1.5312 10.0625C1.41055 10.0625 1.3125 10.1606 1.3125 10.2814V19.4689C1.3125 19.5895 1.41055 19.6876 1.5312 19.6876H8.0937C8.2145 19.6876 8.31255 19.5895 8.31255 19.4689V10.2814C8.31255 10.1606 8.2145 10.0625 8.0937 10.0625H1.5312Z" fill="#19E336"/>
<path d="M19.4689 21.0001H12.9064C12.0619 21.0001 11.375 20.3132 11.375 19.4689V15.5314C11.375 14.6869 12.0619 14 12.9064 14H19.4689C20.3132 14 21.0001 14.6869 21.0001 15.5314V19.4689C21.0001 20.3132 20.3132 21.0001 19.4689 21.0001ZM12.9064 15.3125C12.7856 15.3125 12.6875 15.4106 12.6875 15.5314V19.4689C12.6875 19.5895 12.7856 19.6876 12.9064 19.6876H19.4689C19.5895 19.6876 19.6876 19.5895 19.6876 19.4689V15.5314C19.6876 15.4106 19.5895 15.3125 19.4689 15.3125H12.9064Z" fill="#19E336"/>
<path d="M19.4689 12.2501H12.9064C12.0619 12.2501 11.375 11.5632 11.375 10.7187V1.5312C11.375 0.686852 12.0619 0 12.9064 0H19.4689C20.3132 0 21.0001 0.686852 21.0001 1.5312V10.7187C21.0001 11.5632 20.3132 12.2501 19.4689 12.2501ZM12.9064 1.3125C12.7856 1.3125 12.6875 1.41055 12.6875 1.5312V10.7187C12.6875 10.8395 12.7856 10.9376 12.9064 10.9376H19.4689C19.5895 10.9376 19.6876 10.8395 19.6876 10.7187V1.5312C19.6876 1.41055 19.5895 1.3125 19.4689 1.3125H12.9064Z" fill="#19E336"/>
</svg>
