<svg width="27" height="21" viewBox="0 0 27 21" fill="none" xmlns="http://www.w3.org/2000/svg">
<path d="M19.5175 5.25V5.42H19.6875H23.625C24.9749 5.42 26.08 6.52514 26.08 7.875V20.83H0.17V7.875C0.17 6.52514 1.27514 5.42 2.625 5.42H6.5625H6.7325V5.25V2.625C6.7325 1.27514 7.83764 0.17 9.1875 0.17H17.0625C18.4124 0.17 19.5175 1.27514 19.5175 2.625V5.25ZM9.1875 2.455H9.0175V2.625V5.25V5.42H9.1875H17.0625H17.2325V5.25V2.625V2.455H17.0625H9.1875ZM23.625 18.545H23.795V18.375V14.4375V14.2675H23.625H21H20.83V14.4375V15.58H18.545V14.4375V14.2675H18.375H7.875H7.705V14.4375V15.58H5.42V14.4375V14.2675H5.25H2.625H2.455V14.4375V18.375V18.545H2.625H23.625ZM20.83 11.8125V11.9825H21H23.625H23.795V11.8125V7.875V7.705H23.625H19.6875H6.5625H2.625H2.455V7.875V11.8125V11.9825H2.625H5.25H5.42V11.8125V10.67H7.705V11.8125V11.9825H7.875H18.375H18.545V11.8125V10.67H20.83V11.8125Z" fill="white" stroke="#040959" stroke-width="0.34"/>
</svg>
