<svg width="150" height="150" viewBox="0 0 150 150" fill="none" xmlns="http://www.w3.org/2000/svg">
<path d="M5.91419 7.2484C5.91419 5.17955 4.63144 4 2.95709 4C1.27349 4 0 5.17955 0 7.2484C0 9.30799 1.27349 10.4968 2.95709 10.4968C4.63144 10.4968 5.91419 9.31725 5.91419 7.2484ZM4.56052 7.2484C4.56052 8.58852 3.92532 9.31417 2.95709 9.31417C1.98579 9.31417 1.35366 8.58852 1.35366 7.2484C1.35366 5.90828 1.98579 5.18264 2.95709 5.18264C3.92532 5.18264 4.56052 5.90828 4.56052 7.2484Z" fill="#040959"/>
<path d="M9.01852 10.503C10.2797 10.503 11.0721 9.7619 11.1338 8.6719H9.89424C9.81715 9.1783 9.48413 9.46238 9.03394 9.46238C8.42032 9.46238 8.02254 8.94671 8.02254 8.03889C8.02254 7.14342 8.4234 6.63084 9.03394 6.63084C9.51497 6.63084 9.82332 6.94888 9.89424 7.42132H11.1338C11.0783 6.32514 10.2488 5.60567 9.01235 5.60567C7.57543 5.60567 6.68738 6.60305 6.68738 8.05742C6.68738 9.49944 7.56002 10.503 9.01852 10.503Z" fill="#040959"/>
<path d="M14.4941 5.66743H13.6029V4.53111H12.2894V5.66743H11.6418V6.65554H12.2894V9.12581C12.2832 10.0552 12.9153 10.5153 13.8681 10.4752C14.2073 10.4628 14.4478 10.3949 14.5804 10.3517L14.3738 9.37283C14.3091 9.38519 14.1703 9.41606 14.047 9.41606C13.7849 9.41606 13.6029 9.31725 13.6029 8.95289V6.65554H14.4941V5.66743Z" fill="#040959"/>
<path d="M17.4388 10.503C18.8758 10.503 19.77 9.51796 19.77 8.05742C19.77 6.58761 18.8758 5.60567 17.4388 5.60567C16.0019 5.60567 15.1077 6.58761 15.1077 8.05742C15.1077 9.51796 16.0019 10.503 17.4388 10.503ZM17.445 9.484C16.782 9.484 16.4429 8.87569 16.4429 8.04815C16.4429 7.22061 16.782 6.60922 17.445 6.60922C18.0956 6.60922 18.4348 7.22061 18.4348 8.04815C18.4348 8.87569 18.0956 9.484 17.445 9.484Z" fill="#040959"/>
<path d="M20.6488 10.4103H21.9439V9.65074H22.0024C22.1844 10.046 22.5821 10.4875 23.3469 10.4875C24.4261 10.4875 25.2679 9.63221 25.2679 8.04506C25.2679 6.41469 24.3891 5.60567 23.3499 5.60567C22.5575 5.60567 22.1782 6.07811 22.0024 6.46409H21.9624V4.08646H20.6488V10.4103ZM21.9346 8.03889C21.9346 7.19282 22.2923 6.65245 22.9306 6.65245C23.5812 6.65245 23.9266 7.21752 23.9266 8.03889C23.9266 8.86643 23.575 9.44077 22.9306 9.44077C22.2985 9.44077 21.9346 8.88496 21.9346 8.03889Z" fill="#040959"/>
<path d="M28.3028 10.503C29.4746 10.503 30.264 9.93173 30.449 9.0517L29.2341 8.97142C29.1015 9.33269 28.7623 9.52105 28.3244 9.52105C27.6676 9.52105 27.2514 9.08567 27.2514 8.37855V8.37546H30.4767V8.01419C30.4767 6.40234 29.5023 5.60567 28.2504 5.60567C26.8567 5.60567 25.9532 6.59687 25.9532 8.0605C25.9532 9.56428 26.8443 10.503 28.3028 10.503ZM27.2514 7.56027C27.2791 7.0199 27.6892 6.58761 28.272 6.58761C28.8425 6.58761 29.2372 6.9952 29.2402 7.56027H27.2514Z" fill="#040959"/>
<path d="M31.3339 10.4103H32.6475V7.72702C32.6475 7.14342 33.073 6.742 33.6527 6.742C33.8347 6.742 34.0844 6.77288 34.2078 6.81302V5.64582C34.0906 5.61803 33.9272 5.5995 33.7946 5.5995C33.2642 5.5995 32.8294 5.90828 32.6568 6.49497H32.6074V5.66743H31.3339V10.4103Z" fill="#040959"/>
<path d="M36.8843 10.4103H41.3862V9.31725H38.7344V9.27402L39.6564 8.36929C40.9545 7.18356 41.303 6.59069 41.303 5.87123C41.303 4.77505 40.4087 4 39.0551 4C37.7292 4 36.8195 4.79357 36.8226 6.03488H38.0899C38.0869 5.42967 38.4692 5.05913 39.0458 5.05913C39.6009 5.05913 40.014 5.40496 40.014 5.96078C40.014 6.46409 39.7057 6.80993 39.1322 7.36265L36.8843 9.44694V10.4103Z" fill="#040959"/>
<path d="M44.8297 10.5493C46.4177 10.5493 47.3767 9.33887 47.3798 7.25458C47.3829 5.18573 46.4116 4 44.8297 4C43.2448 4 42.2827 5.18264 42.2797 7.25458C42.2735 9.33269 43.2386 10.5462 44.8297 10.5493ZM44.8297 9.44077C44.1051 9.44077 43.6364 8.71204 43.6395 7.25458C43.6426 5.81873 44.1082 5.09618 44.8297 5.09618C45.5482 5.09618 46.0169 5.81873 46.0169 7.25458C46.02 8.71204 45.5513 9.44077 44.8297 9.44077Z" fill="#040959"/>
<path d="M48.3318 10.4103H52.8338V9.31725H50.1819V9.27402L51.1039 8.36929C52.4021 7.18356 52.7505 6.59069 52.7505 5.87123C52.7505 4.77505 51.8563 4 50.5026 4C49.1767 4 48.2671 4.79357 48.2702 6.03488H49.5375C49.5344 5.42967 49.9168 5.05913 50.4934 5.05913C51.0484 5.05913 51.4616 5.40496 51.4616 5.96078C51.4616 6.46409 51.1533 6.80993 50.5797 7.36265L48.3318 9.44694V10.4103Z" fill="#040959"/>
<path d="M56.2773 10.5493C57.8653 10.5493 58.8243 9.33887 58.8274 7.25458C58.8304 5.18573 57.8591 4 56.2773 4C54.6924 4 53.7303 5.18264 53.7272 7.25458C53.7211 9.33269 54.6862 10.5462 56.2773 10.5493ZM56.2773 9.44077C55.5527 9.44077 55.084 8.71204 55.0871 7.25458C55.0901 5.81873 55.5558 5.09618 56.2773 5.09618C56.9958 5.09618 57.4644 5.81873 57.4644 7.25458C57.4675 8.71204 56.9988 9.44077 56.2773 9.44077Z" fill="#040959"/>
<path fill-rule="evenodd" clip-rule="evenodd" d="M110.566 6.40429C110.254 6.09148 110.254 5.5843 110.566 5.27149L115.098 0.740271C115.41 0.427456 115.918 0.427456 116.23 0.740271C116.543 1.05309 116.543 1.56026 116.23 1.87308L112.266 5.83789L116.23 9.80271C116.543 10.1155 116.543 10.6227 116.23 10.9355C115.918 11.2483 115.41 11.2483 115.098 10.9355L110.566 6.40429Z" fill="#040959"/>
<path fill-rule="evenodd" clip-rule="evenodd" d="M148.09 6.40429C148.403 6.09148 148.403 5.5843 148.09 5.27149L143.559 0.740271C143.246 0.427456 142.739 0.427456 142.426 0.740271C142.113 1.05309 142.113 1.56026 142.426 1.87308L146.391 5.83789L142.426 9.80271C142.113 10.1155 142.113 10.6227 142.426 10.9355C142.739 11.2483 143.246 11.2483 143.559 10.9355L148.09 6.40429Z" fill="#040959"/>
<path d="M0 30.9249V37.2488H0.907824V32.6696H0.966493L2.83155 37.2396H3.58498L5.45003 32.6726H5.5087V37.2488H6.41652V30.9249H5.25858L3.24531 35.8408H3.17121L1.15794 30.9249H0Z" fill="#040959"/>
<path d="M9.88879 37.3445C11.2258 37.3445 12.0997 36.3657 12.0997 34.899C12.0997 33.423 11.2258 32.4441 9.88879 32.4441C8.55176 32.4441 7.6779 33.423 7.6779 34.899C7.6779 36.3657 8.55176 37.3445 9.88879 37.3445ZM9.89188 36.5695C9.01802 36.5695 8.61043 35.8068 8.61043 34.8959C8.61043 33.9881 9.01802 33.2161 9.89188 33.2161C10.7596 33.2161 11.1672 33.9881 11.1672 34.8959C11.1672 35.8068 10.7596 36.5695 9.89188 36.5695Z" fill="#040959"/>
<path d="M25.1245 31.7473H27.0946V37.2498H28.0456V31.7473H30.0187V30.9259H25.1245V31.7473Z" fill="#040959"/>
<path d="M33.3852 35.2828C33.3883 36.0888 32.7893 36.4717 32.2705 36.4717C31.6993 36.4717 31.304 36.0579 31.304 35.4125V32.5069H30.3808V35.5237C30.3808 36.7002 31.0261 37.3115 31.937 37.3115C32.6503 37.3115 33.1351 36.9348 33.3544 36.4284H33.4038V37.2498H34.3116V32.5069H33.3852V35.2828Z" fill="#040959"/>
<path d="M49.1133 37.2498H50.0767L51.4075 32.5131H51.4569L52.7878 37.2498H53.7481L55.5051 30.9259H54.4985L53.2695 35.8263H53.2108L51.9294 30.9259H50.9351L49.6536 35.8232H49.595L48.3629 30.9259H47.3594L49.1133 37.2498Z" fill="#040959"/>
<path d="M57.8781 37.3455C58.9125 37.3455 59.6443 36.836 59.8543 36.0641L58.9804 35.9066C58.8137 36.3543 58.4123 36.5828 57.8874 36.5828C57.0969 36.5828 56.5658 36.0702 56.5411 35.1562H59.913V34.8289C59.913 33.1152 58.8878 32.4451 57.8132 32.4451C56.4916 32.4451 55.6209 33.4518 55.6209 34.9092C55.6209 36.3821 56.4793 37.3455 57.8781 37.3455ZM56.5441 34.4646C56.5812 33.7914 57.0691 33.2078 57.8194 33.2078C58.5358 33.2078 59.0051 33.7389 59.0082 34.4646H56.5441Z" fill="#040959"/>
<path d="M72.959 31.7473H74.929V37.2498H75.8801V31.7473H77.8532V30.9259H72.959V31.7473Z" fill="#040959"/>
<path d="M79.7839 34.4337C79.7839 33.6772 80.2625 33.2449 80.9202 33.2449C81.5563 33.2449 81.9361 33.6494 81.9361 34.3441V37.2498H82.8594V34.233C82.8594 33.0503 82.2109 32.4451 81.2352 32.4451C80.4972 32.4451 80.0525 32.7663 79.8302 33.2788H79.7715V30.9259H78.8606V37.2498H79.7839V34.4337Z" fill="#040959"/>
<path d="M96.0889 37.2498H97.043V34.4924H99.7294V33.6741H97.043V31.7473H100.01V30.9259H96.0889V37.2498Z" fill="#040959"/>
<path d="M101.05 37.2498H101.974V34.3534C101.974 33.7327 102.452 33.285 103.107 33.285C103.298 33.285 103.514 33.319 103.588 33.3406V32.4575C103.496 32.4451 103.314 32.4359 103.196 32.4359C102.64 32.4359 102.165 32.7508 101.992 33.2603H101.943V32.5069H101.05V37.2498Z" fill="#040959"/>
<path d="M119.827 32.5866H120.747C120.719 31.5738 119.824 30.8389 118.54 30.8389C117.27 30.8389 116.298 31.5645 116.298 32.6545C116.298 33.5345 116.928 34.0502 117.944 34.325L118.691 34.5288C119.367 34.7079 119.889 34.9303 119.889 35.4922C119.889 36.1098 119.299 36.5174 118.487 36.5174C117.752 36.5174 117.141 36.1901 117.085 35.5015H116.128C116.19 36.6471 117.076 37.3542 118.493 37.3542C119.978 37.3542 120.834 36.573 120.834 35.5015C120.834 34.3621 119.818 33.9205 119.015 33.7229L118.397 33.5623C117.903 33.4357 117.246 33.2042 117.249 32.5989C117.249 32.0617 117.74 31.6633 118.518 31.6633C119.244 31.6633 119.759 32.003 119.827 32.5866Z" fill="#040959"/>
<path d="M123.28 37.3542C124.064 37.3542 124.506 36.9559 124.682 36.6008H124.719V37.2492H125.621V34.0996C125.621 32.7194 124.534 32.4445 123.78 32.4445C122.922 32.4445 122.131 32.7904 121.823 33.655L122.69 33.8526C122.826 33.516 123.172 33.1918 123.793 33.1918C124.389 33.1918 124.694 33.5037 124.694 34.041V34.0626C124.694 34.3991 124.348 34.393 123.496 34.4918C122.598 34.5968 121.677 34.8314 121.677 35.9091C121.677 36.8416 122.378 37.3542 123.28 37.3542ZM123.481 36.6131C122.959 36.6131 122.582 36.3784 122.582 35.9214C122.582 35.4274 123.021 35.2514 123.555 35.1804C123.854 35.1402 124.565 35.0599 124.697 34.9272V35.5386C124.697 36.1005 124.25 36.6131 123.481 36.6131Z" fill="#040959"/>
<path d="M142.18 32.5866H143.1C143.072 31.5738 142.177 30.8389 140.892 30.8389C139.623 30.8389 138.65 31.5645 138.65 32.6545C138.65 33.5345 139.28 34.0502 140.296 34.325L141.043 34.5288C141.72 34.7079 142.241 34.9302 142.241 35.4922C142.241 36.1098 141.652 36.5174 140.84 36.5174C140.105 36.5174 139.493 36.1901 139.438 35.5015H138.48C138.542 36.6471 139.428 37.3542 140.846 37.3542C142.331 37.3542 143.186 36.573 143.186 35.5015C143.186 34.3621 142.17 33.9205 141.368 33.7229L140.75 33.5623C140.256 33.4357 139.598 33.2041 139.601 32.5989C139.601 32.0616 140.092 31.6633 140.87 31.6633C141.596 31.6633 142.112 32.003 142.18 32.5866Z" fill="#040959"/>
<path d="M147.257 35.2823C147.26 36.0882 146.661 36.4711 146.142 36.4711C145.571 36.4711 145.176 36.0573 145.176 35.412V32.5063H144.252V35.5231C144.252 36.6996 144.898 37.311 145.809 37.311C146.522 37.311 147.007 36.9343 147.226 36.4278H147.275V37.2492H148.183V32.5063H147.257V35.2823Z" fill="#040959"/>
<path d="M78.7949 53.0265H77.8655L76.2876 54.0578V54.9718L77.8006 53.9837H77.8377V59.3504H78.7949V53.0265Z" fill="#040959"/>
<path d="M97.7034 59.3508H101.866V58.5325H99.0189V58.4862L100.276 57.1708C101.434 56.0005 101.764 55.4416 101.764 54.7345C101.764 53.7186 100.936 52.9404 99.7445 52.9404C98.5619 52.9404 97.6973 53.7062 97.6973 54.8611H98.6082C98.6051 54.1817 99.0436 53.7371 99.726 53.7371C100.368 53.7371 100.856 54.1323 100.856 54.7623C100.856 55.3212 100.523 55.7226 99.8433 56.442L97.7034 58.6591V59.3508Z" fill="#040959"/>
<path d="M120.964 59.4372C122.255 59.4372 123.203 58.6653 123.2 57.6154C123.203 56.8157 122.718 56.2413 121.878 56.1116V56.0622C122.539 55.8924 122.968 55.3736 122.965 54.6634C122.968 53.734 122.205 52.9404 120.989 52.9404C119.828 52.9404 118.895 53.6414 118.864 54.6696H119.787C119.809 54.0891 120.356 53.7371 120.976 53.7371C121.622 53.7371 122.045 54.1292 122.042 54.7128C122.045 55.3242 121.554 55.7257 120.853 55.7257H120.319V56.5038H120.853C121.73 56.5038 122.236 56.9484 122.236 57.5845C122.236 58.199 121.702 58.6159 120.958 58.6159C120.272 58.6159 119.738 58.2639 119.701 57.7019H118.731C118.772 58.7332 119.686 59.4372 120.964 59.4372Z" fill="#040959"/>
<path d="M141.05 58.1152H144.049V59.3504H144.959V58.1152H145.796V57.3062H144.959V53.0265H143.783L141.05 57.3433V58.1152ZM144.055 57.3062H142.051V57.2568L144.005 54.1628H144.055V57.3062Z" fill="#040959"/>
<path d="M5.92399 81.5369C7.19618 81.5369 8.104 80.6384 8.10091 79.4063C8.104 78.1835 7.25176 77.2942 6.1 77.2942C5.63064 77.2942 5.19526 77.4733 4.94823 77.7142H4.91118L5.11189 75.9449H7.79522V75.1266H4.31831L3.96321 78.3132L4.83707 78.4429C5.07483 78.2299 5.50096 78.0847 5.88385 78.0847C6.63419 78.0909 7.17765 78.6529 7.17765 79.4249C7.17765 80.1845 6.64963 80.7341 5.92399 80.7341C5.3126 80.7341 4.82781 80.345 4.7784 79.8016H3.85205C3.8891 80.8082 4.76296 81.5369 5.92399 81.5369Z" fill="#040959"/>
<path d="M29.7075 81.5365C31.0291 81.5489 31.906 80.5978 31.9029 79.3843C31.906 78.1739 31.026 77.3062 29.9298 77.3062C29.2628 77.3062 28.6854 77.6273 28.3612 78.1615H28.3149C28.318 76.7103 28.8614 75.8611 29.7878 75.8611C30.3961 75.8611 30.779 76.2285 30.9087 76.7689H31.8505C31.7053 75.753 30.9179 75.0243 29.7878 75.0243C28.318 75.0243 27.4009 76.2872 27.4009 78.5012C27.4009 80.8294 28.5835 81.5273 29.7075 81.5365ZM29.7044 80.7337C28.9695 80.7337 28.4322 80.1161 28.4322 79.4059C28.4353 78.6988 28.9973 78.0812 29.726 78.0812C30.4486 78.0812 30.9797 78.6649 30.9766 79.3967C30.9797 80.1439 30.427 80.7337 29.7044 80.7337Z" fill="#040959"/>
<path d="M51.8713 81.4504H52.8686L55.6199 75.9725V75.1265H51.439V75.9447H54.6318V75.9911L51.8713 81.4504Z" fill="#040959"/>
<path d="M77.84 81.5367C79.1554 81.5367 80.0848 80.7895 80.091 79.7643C80.0848 78.9676 79.5259 78.2976 78.8188 78.171V78.1339C79.4333 77.9857 79.8501 77.4083 79.8563 76.7259C79.8501 75.7594 78.9979 75.0399 77.84 75.0399C76.6697 75.0399 75.8174 75.7594 75.8236 76.7259C75.8174 77.4052 76.2343 77.9857 76.8611 78.1339V78.171C76.1416 78.2976 75.5827 78.9676 75.5889 79.7643C75.5827 80.7895 76.5122 81.5367 77.84 81.5367ZM77.84 80.7555C77.0495 80.7555 76.5492 80.3356 76.5554 79.7025C76.5492 79.0448 77.0927 78.5755 77.84 78.5755C78.5749 78.5755 79.1183 79.0448 79.1245 79.7025C79.1183 80.3356 78.6212 80.7555 77.84 80.7555ZM77.84 77.8128C77.2008 77.8128 76.7469 77.4083 76.753 76.8062C76.7469 76.2133 77.1853 75.8211 77.84 75.8211C78.4822 75.8211 78.9207 76.2133 78.9269 76.8062C78.9207 77.4083 78.4699 77.8128 77.84 77.8128Z" fill="#040959"/>
<path d="M99.5275 75.0244C98.1997 75.0151 97.332 75.9661 97.332 77.1766C97.332 78.387 98.209 79.2578 99.3052 79.2578C99.9752 79.2578 100.55 78.9305 100.874 78.3994H100.923C100.92 79.8537 100.374 80.7029 99.4472 80.7029C98.842 80.7029 98.4529 80.3323 98.3294 79.792H97.3876C97.5266 80.8141 98.3171 81.5366 99.4472 81.5366C100.917 81.5366 101.834 80.2737 101.837 78.0597C101.834 75.7346 100.655 75.0336 99.5275 75.0244ZM99.5306 75.8272C100.262 75.8272 100.803 76.4479 100.803 77.155C100.803 77.8621 100.235 78.4796 99.512 78.4796C98.7864 78.4796 98.2584 77.8991 98.2584 77.1642C98.2584 76.417 98.8049 75.8272 99.5306 75.8272Z" fill="#040959"/>
<path d="M119.284 75.1264H118.354L116.776 76.1577V77.0717L118.289 76.0836H118.326V81.4503H119.284V75.1264Z" fill="#040959"/>
<path d="M123.196 81.5552C124.657 81.5552 125.512 80.3633 125.512 78.2914C125.512 76.2349 124.644 75.0399 123.196 75.0399C121.745 75.0399 120.88 76.2318 120.877 78.2914C120.877 80.3603 121.732 81.5522 123.196 81.5552ZM123.196 80.7308C122.341 80.7308 121.825 79.8724 121.825 78.2914C121.828 76.7166 122.344 75.8489 123.196 75.8489C124.045 75.8489 124.564 76.7166 124.564 78.2914C124.564 79.8724 124.048 80.7308 123.196 80.7308Z" fill="#040959"/>
<path d="M142.499 75.1265H141.569L139.991 76.1578V77.0718L141.504 76.0837H141.541V81.4504H142.499V75.1265Z" fill="#040959"/>
<path d="M146.608 75.1265H145.679L144.101 76.1578V77.0718L145.614 76.0837H145.651V81.4504H146.608V75.1265Z" fill="#040959"/>
<path d="M4.21045 97.2267H3.28101L1.70312 98.2581V99.1721L3.21616 98.1839H3.25322V103.551H4.21045V97.2267Z" fill="#040959"/>
<path d="M5.92111 103.551H10.0835V102.732H7.23653V102.686L8.49327 101.371C9.65121 100.2 9.98161 99.6414 9.98161 98.9343C9.98161 97.9184 9.15407 97.1403 7.96217 97.1403C6.77953 97.1403 5.91493 97.906 5.91493 99.0609H6.82584C6.82276 98.3816 7.26123 97.9369 7.94364 97.9369C8.58591 97.9369 9.07379 98.3322 9.07379 98.9621C9.07379 99.521 8.7403 99.9224 8.06098 100.642L5.92111 102.859V103.551Z" fill="#040959"/>
<path d="M27.9868 97.2267H27.0574L25.4795 98.2581V99.1721L26.9925 98.1839H27.0296V103.551H27.9868V97.2267Z" fill="#040959"/>
<path d="M31.8991 103.637C33.1898 103.637 34.1378 102.865 34.1347 101.815C34.1378 101.015 33.653 100.441 32.8131 100.311V100.262C33.4739 100.092 33.9031 99.5735 33.9 98.8633C33.9031 97.9338 33.1404 97.1403 31.9238 97.1403C30.7628 97.1403 29.8303 97.8412 29.7994 98.8694H30.7226C30.7443 98.2889 31.2908 97.9369 31.9115 97.9369C32.5568 97.9369 32.9798 98.3291 32.9768 98.9127C32.9798 99.5241 32.4889 99.9255 31.7879 99.9255H31.2537V100.704H31.7879C32.6649 100.704 33.1713 101.148 33.1713 101.784C33.1713 102.399 32.6371 102.816 31.8929 102.816C31.2074 102.816 30.6732 102.464 30.6362 101.902H29.6666C29.7067 102.933 30.6207 103.637 31.8991 103.637Z" fill="#040959"/>
<path d="M63.712 100.29C63.712 105.893 59.1701 110.435 53.5674 110.435C47.9647 110.435 43.4229 105.893 43.4229 100.29C43.4229 94.6875 47.9647 90.1456 53.5674 90.1456C59.1701 90.1456 63.712 94.6875 63.712 100.29Z" fill="#19E336"/>
<path d="M51.6753 97.2273H50.7459L49.168 98.2586V99.1726L50.681 98.1845H50.7181V103.551H51.6753V97.2273Z" fill="#040959"/>
<path d="M53.2532 102.316H56.2515V103.551H57.1624V102.316H57.9992V101.507H57.1624V97.2273H55.9859L53.2532 101.544V102.316ZM56.2576 101.507H54.2536V101.458L56.2082 98.3636H56.2576V101.507Z" fill="#040959"/>
<path d="M76.2798 97.2273H75.3503L73.7725 98.2586V99.1726L75.2855 98.1845H75.3226V103.551H76.2798V97.2273Z" fill="#040959"/>
<path d="M80.0778 103.638C81.35 103.638 82.2578 102.739 82.2547 101.507C82.2578 100.284 81.4056 99.395 80.2538 99.395C79.7845 99.395 79.3491 99.574 79.1021 99.8149H79.065L79.2657 98.0456H81.949V97.2273H78.4721L78.117 100.414L78.9909 100.544C79.2287 100.331 79.6548 100.185 80.0377 100.185C80.788 100.192 81.3315 100.754 81.3315 101.526C81.3315 102.285 80.8035 102.835 80.0778 102.835C79.4664 102.835 78.9816 102.446 78.9322 101.902H78.0059C78.0429 102.909 78.9168 103.638 80.0778 103.638Z" fill="#040959"/>
<path d="M97.9502 97.2269H97.0208L95.4429 98.2582V99.1722L96.9559 98.1841H96.993V103.551H97.9502V97.2269Z" fill="#040959"/>
<path d="M101.869 103.637C103.19 103.65 104.067 102.699 104.064 101.485C104.067 100.275 103.187 99.4069 102.091 99.4069C101.424 99.4069 100.847 99.728 100.522 100.262H100.476C100.479 98.811 101.023 97.9618 101.949 97.9618C102.557 97.9618 102.94 98.3293 103.07 98.8696H104.012C103.866 97.8537 103.079 97.125 101.949 97.125C100.479 97.125 99.562 98.3879 99.562 100.602C99.562 102.93 100.745 103.628 101.869 103.637ZM101.866 102.834C101.131 102.834 100.593 102.217 100.593 101.507C100.596 100.8 101.158 100.182 101.887 100.182C102.61 100.182 103.141 100.766 103.138 101.497C103.141 102.245 102.588 102.834 101.866 102.834Z" fill="#040959"/>
<path d="M119.391 97.2273H118.462L116.884 98.2586V99.1726L118.397 98.1845H118.434V103.551H119.391V97.2273Z" fill="#040959"/>
<path d="M121.315 103.551H122.312L125.063 98.0734V97.2273H120.882V98.0456H124.075V98.0919L121.315 103.551Z" fill="#040959"/>
<path d="M141.806 97.2267H140.877L139.299 98.2581V99.1721L140.812 98.1839H140.849V103.551H141.806V97.2267Z" fill="#040959"/>
<path d="M145.654 103.637C146.969 103.637 147.898 102.89 147.905 101.865C147.898 101.068 147.34 100.398 146.632 100.271V100.234C147.247 100.086 147.664 99.5086 147.67 98.8262C147.664 97.8597 146.812 97.1403 145.654 97.1403C144.483 97.1403 143.631 97.8597 143.637 98.8262C143.631 99.5055 144.048 100.086 144.675 100.234V100.271C143.955 100.398 143.396 101.068 143.403 101.865C143.396 102.89 144.326 103.637 145.654 103.637ZM145.654 102.856C144.863 102.856 144.363 102.436 144.369 101.803C144.363 101.145 144.906 100.676 145.654 100.676C146.388 100.676 146.932 101.145 146.938 101.803C146.932 102.436 146.435 102.856 145.654 102.856ZM145.654 99.9131C145.014 99.9131 144.56 99.5086 144.567 98.9065C144.56 98.3136 144.999 97.9215 145.654 97.9215C146.296 97.9215 146.734 98.3136 146.741 98.9065C146.734 99.5086 146.284 99.9131 145.654 99.9131Z" fill="#040959"/>
<path d="M4.11279 119.328H3.18335L1.60547 120.36V121.274L3.11851 120.286H3.15556V125.652H4.11279V119.328Z" fill="#040959"/>
<path d="M7.92627 119.226C6.5985 119.217 5.73082 120.168 5.73082 121.379C5.73082 122.589 6.60776 123.46 7.70394 123.46C8.374 123.46 8.94834 123.132 9.27256 122.601H9.32197C9.31888 124.056 8.77234 124.905 7.84598 124.905C7.24077 124.905 6.8517 124.534 6.72819 123.994H5.7864C5.92535 125.016 6.71584 125.739 7.84598 125.739C9.31579 125.739 10.2329 124.476 10.236 122.262C10.2329 119.937 9.05333 119.236 7.92627 119.226ZM7.92936 120.029C8.66117 120.029 9.20154 120.65 9.20154 121.357C9.20154 122.064 8.63338 122.682 7.91083 122.682C7.18519 122.682 6.65717 122.101 6.65717 121.366C6.65717 120.619 7.20371 120.029 7.92936 120.029Z" fill="#040959"/>
<path d="M24.972 125.652H29.1344V124.834H26.2874V124.787L27.5442 123.472C28.7021 122.302 29.0325 121.743 29.0325 121.036C29.0325 120.02 28.205 119.242 27.0131 119.242C25.8304 119.242 24.9658 120.007 24.9658 121.162H25.8767C25.8736 120.483 26.3121 120.038 26.9945 120.038C27.6368 120.038 28.1247 120.433 28.1247 121.063C28.1247 121.622 27.7912 122.024 27.1119 122.743L24.972 124.96V125.652Z" fill="#040959"/>
<path d="M32.5063 125.757C33.9669 125.757 34.8222 124.565 34.8222 122.493C34.8222 120.437 33.9545 119.242 32.5063 119.242C31.055 119.242 30.1904 120.433 30.1874 122.493C30.1874 124.562 31.0427 125.754 32.5063 125.757ZM32.5063 124.932C31.651 124.932 31.1353 124.074 31.1353 122.493C31.1384 120.918 31.6541 120.051 32.5063 120.051C33.3555 120.051 33.8742 120.918 33.8742 122.493C33.8742 124.074 33.3586 124.932 32.5063 124.932Z" fill="#040959"/>
<path d="M49.6356 125.652H53.798V124.834H50.951V124.787L52.2077 123.472C53.3657 122.302 53.6961 121.743 53.6961 121.036C53.6961 120.02 52.8685 119.242 51.6766 119.242C50.494 119.242 49.6294 120.007 49.6294 121.162H50.5403C50.5372 120.483 50.9757 120.038 51.6581 120.038C52.3004 120.038 52.7883 120.433 52.7883 121.063C52.7883 121.622 52.4548 122.024 51.7754 122.743L49.6356 124.96V125.652Z" fill="#040959"/>
<path d="M57.3675 119.328H56.4381L54.8602 120.359V121.273L56.3732 120.285H56.4103V125.652H57.3675V119.328Z" fill="#040959"/>
<path d="M73.1175 125.652H77.2799V124.834H74.4329V124.787L75.6897 123.472C76.8476 122.302 77.178 121.743 77.178 121.036C77.178 120.02 76.3505 119.242 75.1586 119.242C73.9759 119.242 73.1113 120.007 73.1113 121.162H74.0222C74.0192 120.483 74.4576 120.038 75.14 120.038C75.7823 120.038 76.2702 120.433 76.2702 121.063C76.2702 121.622 75.9367 122.024 75.2574 122.743L73.1175 124.96V125.652Z" fill="#040959"/>
<path d="M78.4502 125.652H82.6126V124.834H79.7656V124.787L81.0224 123.472C82.1803 122.302 82.5107 121.743 82.5107 121.036C82.5107 120.02 81.6832 119.242 80.4913 119.242C79.3086 119.242 78.444 120.007 78.444 121.162H79.3549C79.3518 120.483 79.7903 120.038 80.4727 120.038C81.115 120.038 81.6029 120.433 81.6029 121.063C81.6029 121.622 81.2694 122.024 80.5901 122.743L78.4502 124.96V125.652Z" fill="#040959"/>
<path d="M94.9012 125.652H99.0636V124.834H96.2166V124.787L97.4734 123.472C98.6313 122.302 98.9617 121.743 98.9617 121.036C98.9617 120.02 98.1342 119.242 96.9423 119.242C95.7596 119.242 94.895 120.007 94.895 121.162H95.8059C95.8028 120.483 96.2413 120.038 96.9237 120.038C97.566 120.038 98.0539 120.433 98.0539 121.063C98.0539 121.622 97.7204 122.024 97.0411 122.743L94.9012 124.96V125.652Z" fill="#040959"/>
<path d="M102.436 125.738C103.726 125.738 104.674 124.966 104.671 123.917C104.674 123.117 104.189 122.542 103.35 122.413V122.363C104.01 122.194 104.44 121.675 104.436 120.965C104.44 120.035 103.677 119.242 102.46 119.242C101.299 119.242 100.367 119.943 100.336 120.971H101.259C101.281 120.39 101.827 120.038 102.448 120.038C103.093 120.038 103.516 120.43 103.513 121.014C103.516 121.625 103.025 122.027 102.324 122.027H101.79V122.805H102.324C103.201 122.805 103.708 123.25 103.708 123.886C103.708 124.5 103.174 124.917 102.429 124.917C101.744 124.917 101.21 124.565 101.173 124.003H100.203C100.243 125.034 101.157 125.738 102.436 125.738Z" fill="#040959"/>
<path d="M116.303 125.652H120.465V124.834H117.618V124.787L118.875 123.472C120.033 122.302 120.363 121.743 120.363 121.036C120.363 120.02 119.536 119.242 118.344 119.242C117.161 119.242 116.296 120.007 116.296 121.162H117.207C117.204 120.483 117.643 120.038 118.325 120.038C118.967 120.038 119.455 120.433 119.455 121.063C119.455 121.622 119.122 122.024 118.442 122.743L116.303 124.96V125.652Z" fill="#040959"/>
<path d="M121.367 124.417H124.365V125.652H125.276V124.417H126.113V123.608H125.276V119.328H124.099L121.367 123.645V124.417ZM124.371 123.608H122.367V123.558L124.322 120.464H124.371V123.608Z" fill="#040959"/>
<path d="M138.665 125.652H142.828V124.834H139.981V124.787L141.238 123.472C142.395 122.302 142.726 121.743 142.726 121.036C142.726 120.02 141.898 119.242 140.706 119.242C139.524 119.242 138.659 120.007 138.659 121.162H139.57C139.567 120.483 140.005 120.038 140.688 120.038C141.33 120.038 141.818 120.433 141.818 121.063C141.818 121.622 141.485 122.024 140.805 122.743L138.665 124.96V125.652Z" fill="#040959"/>
<path d="M146.085 125.738C147.358 125.738 148.265 124.84 148.262 123.608C148.265 122.385 147.413 121.496 146.261 121.496C145.792 121.496 145.357 121.675 145.11 121.916H145.073L145.273 120.146H147.957V119.328H144.48L144.125 122.515L144.999 122.644C145.236 122.431 145.662 122.286 146.045 122.286C146.796 122.292 147.339 122.854 147.339 123.626C147.339 124.386 146.811 124.936 146.085 124.936C145.474 124.936 144.989 124.546 144.94 124.003H144.013C144.051 125.01 144.924 125.738 146.085 125.738Z" fill="#040959"/>
<path d="M0.980297 147.754H5.1427V146.935H2.29571V146.889L3.55246 145.574C4.7104 144.403 5.0408 143.844 5.0408 143.137C5.0408 142.121 4.21326 141.343 3.02136 141.343C1.83871 141.343 0.974121 142.109 0.974121 143.264H1.88503C1.88194 142.585 2.32042 142.14 3.00283 142.14C3.6451 142.14 4.13298 142.535 4.13298 143.165C4.13298 143.724 3.79949 144.125 3.12017 144.845L0.980297 147.062V147.754Z" fill="#040959"/>
<path d="M8.52079 147.84C9.84238 147.852 10.7193 146.901 10.7162 145.688C10.7193 144.477 9.8393 143.61 8.74311 143.61C8.07614 143.61 7.49872 143.931 7.17449 144.465H7.12818C7.13126 143.014 7.67472 142.165 8.60107 142.165C9.20938 142.165 9.59227 142.532 9.72196 143.073H10.6637C10.5186 142.057 9.73122 141.328 8.60107 141.328C7.13126 141.328 6.21418 142.591 6.21418 144.805C6.21418 147.133 7.39682 147.831 8.52079 147.84ZM8.5177 147.037C7.7828 147.037 7.24551 146.42 7.24551 145.71C7.2486 145.002 7.81059 144.385 8.53932 144.385C9.26187 144.385 9.79298 144.968 9.78989 145.7C9.79298 146.448 9.24026 147.037 8.5177 147.037Z" fill="#040959"/>
<path d="M25.3201 147.753H29.4825V146.934H26.6356V146.888L27.8923 145.573C29.0502 144.402 29.3806 143.843 29.3806 143.136C29.3806 142.12 28.5531 141.342 27.3612 141.342C26.1786 141.342 25.314 142.108 25.314 143.263H26.2249C26.2218 142.584 26.6603 142.139 27.3427 142.139C27.9849 142.139 28.4728 142.534 28.4728 143.164C28.4728 143.723 28.1393 144.124 27.46 144.844L25.3201 147.061V147.753Z" fill="#040959"/>
<path d="M30.8659 147.753H31.8633L34.6145 142.275V141.429H30.4336V142.247H33.6264V142.293L30.8659 147.753Z" fill="#040959"/>
<path d="M48.8216 147.753H52.984V146.934H50.137V146.888L51.3937 145.573C52.5517 144.402 52.8821 143.843 52.8821 143.136C52.8821 142.12 52.0545 141.342 50.8626 141.342C49.68 141.342 48.8154 142.108 48.8154 143.263H49.7263C49.7232 142.584 50.1617 142.139 50.8441 142.139C51.4864 142.139 51.9742 142.534 51.9742 143.164C51.9742 143.723 51.6408 144.124 50.9614 144.844L48.8216 147.061V147.753Z" fill="#040959"/>
<path d="M56.291 147.839C57.6064 147.839 58.5358 147.092 58.542 146.067C58.5358 145.27 57.9769 144.6 57.2698 144.473V144.436C57.8843 144.288 58.3011 143.711 58.3073 143.028C58.3011 142.062 57.4489 141.342 56.291 141.342C55.1207 141.342 54.2685 142.062 54.2747 143.028C54.2685 143.708 54.6853 144.288 55.3122 144.436V144.473C54.5927 144.6 54.0338 145.27 54.04 146.067C54.0338 147.092 54.9632 147.839 56.291 147.839ZM56.291 147.058C55.5005 147.058 55.0003 146.638 55.0065 146.005C55.0003 145.347 55.5437 144.878 56.291 144.878C57.0259 144.878 57.5693 145.347 57.5755 146.005C57.5693 146.638 57.0722 147.058 56.291 147.058ZM56.291 144.115C55.6518 144.115 55.1979 143.711 55.2041 143.109C55.1979 142.516 55.6364 142.124 56.291 142.124C56.9332 142.124 57.3717 142.516 57.3779 143.109C57.3717 143.711 56.9209 144.115 56.291 144.115Z" fill="#040959"/>
<path d="M73.0794 147.752H77.2418V146.934H74.3948V146.887L75.6516 145.572C76.8095 144.402 77.1399 143.843 77.1399 143.136C77.1399 142.12 76.3124 141.342 75.1205 141.342C73.9378 141.342 73.0732 142.107 73.0732 143.262H73.9842C73.9811 142.583 74.4195 142.138 75.1019 142.138C75.7442 142.138 76.2321 142.533 76.2321 143.163C76.2321 143.722 75.8986 144.124 75.2193 144.843L73.0794 147.06V147.752Z" fill="#040959"/>
<path d="M80.5149 141.326C79.1872 141.317 78.3195 142.268 78.3195 143.478C78.3195 144.689 79.1964 145.56 80.2926 145.56C80.9627 145.56 81.537 145.232 81.8612 144.701H81.9106C81.9075 146.155 81.361 147.005 80.4346 147.005C79.8294 147.005 79.4404 146.634 79.3168 146.094H78.3751C78.514 147.116 79.3045 147.838 80.4346 147.838C81.9045 147.838 82.8215 146.575 82.8246 144.361C82.8215 142.036 81.642 141.335 80.5149 141.326ZM80.518 142.129C81.2498 142.129 81.7902 142.75 81.7902 143.457C81.7902 144.164 81.222 144.781 80.4995 144.781C79.7738 144.781 79.2458 144.201 79.2458 143.466C79.2458 142.719 79.7924 142.129 80.518 142.129Z" fill="#040959"/>
<path d="M97.0221 147.839C98.3128 147.839 99.2607 147.067 99.2576 146.017C99.2607 145.218 98.7759 144.643 97.9361 144.513V144.464C98.5969 144.294 99.0261 143.775 99.023 143.065C99.0261 142.136 98.2634 141.342 97.0468 141.342C95.8857 141.342 94.9532 142.043 94.9223 143.071H95.8456C95.8672 142.491 96.4138 142.139 97.0344 142.139C97.6798 142.139 98.1028 142.531 98.0997 143.115C98.1028 143.726 97.6118 144.128 96.9109 144.128H96.3767V144.906H96.9109C97.7878 144.906 98.2942 145.35 98.2942 145.986C98.2942 146.601 97.76 147.018 97.0159 147.018C96.3304 147.018 95.7962 146.666 95.7591 146.104H94.7896C94.8297 147.135 95.7437 147.839 97.0221 147.839Z" fill="#040959"/>
<path d="M102.626 147.858C104.087 147.858 104.942 146.666 104.942 144.594C104.942 142.537 104.075 141.342 102.626 141.342C101.175 141.342 100.311 142.534 100.308 144.594C100.308 146.663 101.163 147.855 102.626 147.858ZM102.626 147.033C101.771 147.033 101.255 146.175 101.255 144.594C101.259 143.019 101.774 142.151 102.626 142.151C103.476 142.151 103.994 143.019 103.994 144.594C103.994 146.175 103.479 147.033 102.626 147.033Z" fill="#040959"/>
<path d="M119.874 147.839C121.165 147.839 122.113 147.067 122.11 146.017C122.113 145.218 121.628 144.643 120.788 144.513V144.464C121.449 144.294 121.878 143.775 121.875 143.065C121.878 142.136 121.115 141.342 119.899 141.342C118.738 141.342 117.805 142.043 117.774 143.071H118.698C118.719 142.491 119.266 142.139 119.886 142.139C120.532 142.139 120.955 142.531 120.952 143.115C120.955 143.726 120.464 144.128 119.763 144.128H119.229V144.906H119.763C120.64 144.906 121.146 145.35 121.146 145.986C121.146 146.601 120.612 147.018 119.868 147.018C119.182 147.018 118.648 146.666 118.611 146.104H117.642C117.682 147.135 118.596 147.839 119.874 147.839Z" fill="#040959"/>
<path d="M125.676 141.429H124.747L123.169 142.46V143.374L124.682 142.386H124.719V147.753H125.676V141.429Z" fill="#040959"/>
<circle cx="77.5" cy="86.5" r="2.5" fill="#040959"/>
<circle cx="53.5" cy="131.5" r="2.5" fill="#707070"/>
<circle cx="120.5" cy="63.5" r="2.5" fill="#707070"/>
<circle cx="5.5" cy="87.5" r="2.5" fill="#19E336"/>
<circle cx="29.5" cy="109.5" r="2.5" fill="#040959"/>
</svg>
