<svg width="407" height="227" viewBox="0 0 407 227" fill="none" xmlns="http://www.w3.org/2000/svg">
<path d="M88.5154 115.163L102.632 167.815C73.5082 175.573 43.6209 158.277 35.863 129.28C28.105 100.283 45.2743 70.2683 74.3984 62.5104C78.9769 61.2386 83.8098 60.6027 88.5154 60.6027V115.163Z" fill="#707070"/>
<path d="M88.5156 114.73L127.051 76.1946C148.29 97.4336 148.29 132.027 127.051 153.266C119.929 160.388 112.298 164.839 102.633 167.382L88.5156 114.73Z" fill="#19E336"/>
<path d="M88.5156 114.73V60.1699C103.904 60.1699 116.241 65.2571 127.051 76.1946L88.5156 114.73Z" fill="#040959"/>
<path d="M65.352 185.517C65.482 185.708 65.638 185.911 65.82 186.128C66.0107 186.345 66.2317 186.527 66.483 186.674C66.743 186.821 67.0377 186.895 67.367 186.895C67.627 186.895 67.887 186.83 68.147 186.7C68.407 186.561 68.6237 186.362 68.797 186.102C68.979 185.833 69.07 185.508 69.07 185.127C69.07 184.737 68.9963 184.425 68.849 184.191C68.7103 183.957 68.524 183.788 68.29 183.684C68.056 183.58 67.8003 183.528 67.523 183.528C67.2543 183.528 66.9813 183.571 66.704 183.658C66.4353 183.736 66.184 183.823 65.95 183.918L65.56 182.891L68.004 180.2H64.767V178.9H69.98L70.24 179.42L67.692 182.241C68.1947 182.241 68.6497 182.367 69.057 182.618C69.473 182.861 69.8023 183.194 70.045 183.619C70.2963 184.044 70.422 184.52 70.422 185.049C70.422 185.673 70.2703 186.219 69.967 186.687C69.6723 187.146 69.2823 187.502 68.797 187.753C68.3203 188.004 67.809 188.13 67.263 188.13C66.7517 188.13 66.3097 188.048 65.937 187.883C65.573 187.71 65.2567 187.476 64.988 187.181C64.7193 186.886 64.4767 186.561 64.26 186.206L65.352 185.517ZM75.4569 188V185.53H71.8689L71.2709 184.36L75.7299 178.9H76.8089V184.243H78.3949V185.53H76.8089V188H75.4569ZM72.9219 184.243H75.4569V181.149L72.9219 184.243ZM85.5889 188V180.252H83.0409V178.9H89.6189V180.252H86.9929V188H85.5889ZM96.2563 184.581C96.2563 185.274 96.1003 185.89 95.7883 186.427C95.4849 186.956 95.0689 187.372 94.5403 187.675C94.0203 187.978 93.4353 188.13 92.7853 188.13C92.1353 188.13 91.5459 187.978 91.0173 187.675C90.4886 187.372 90.0683 186.956 89.7563 186.427C89.4529 185.89 89.3013 185.274 89.3013 184.581C89.3013 183.888 89.4529 183.277 89.7563 182.748C90.0683 182.211 90.4886 181.79 91.0173 181.487C91.5459 181.184 92.1353 181.032 92.7853 181.032C93.4353 181.032 94.0203 181.184 94.5403 181.487C95.0689 181.79 95.4849 182.211 95.7883 182.748C96.1003 183.277 96.2563 183.888 96.2563 184.581ZM94.8913 184.581C94.8999 184.122 94.8089 183.719 94.6183 183.372C94.4363 183.017 94.1849 182.744 93.8643 182.553C93.5436 182.354 93.1839 182.254 92.7853 182.254C92.3866 182.254 92.0226 182.354 91.6933 182.553C91.3726 182.744 91.1169 183.017 90.9263 183.372C90.7443 183.719 90.6576 184.122 90.6663 184.581C90.6576 185.032 90.7443 185.435 90.9263 185.79C91.1169 186.137 91.3726 186.41 91.6933 186.609C92.0226 186.808 92.3866 186.908 92.7853 186.908C93.1839 186.908 93.5436 186.808 93.8643 186.609C94.1849 186.41 94.4363 186.137 94.6183 185.79C94.8089 185.435 94.8999 185.032 94.8913 184.581ZM99.8993 188H98.5603V182.475H97.1433V181.175H98.5603V179.433H99.8993V181.175H101.485V182.475H99.8993V188ZM108.998 181.175V188H107.646V186.947C107.438 187.233 107.13 187.502 106.723 187.753C106.316 188.004 105.843 188.13 105.306 188.13C104.734 188.13 104.21 187.978 103.733 187.675C103.265 187.372 102.892 186.951 102.615 186.414C102.338 185.877 102.199 185.261 102.199 184.568C102.199 183.875 102.342 183.264 102.628 182.735C102.914 182.198 103.308 181.782 103.811 181.487C104.314 181.184 104.886 181.032 105.527 181.032C106.004 181.032 106.42 181.136 106.775 181.344C107.139 181.552 107.429 181.795 107.646 182.072V181.175H108.998ZM105.618 186.895C106.034 186.895 106.398 186.795 106.71 186.596C107.022 186.388 107.265 186.111 107.438 185.764C107.611 185.409 107.698 185.01 107.698 184.568C107.698 184.135 107.611 183.745 107.438 183.398C107.265 183.051 107.022 182.778 106.71 182.579C106.398 182.371 106.034 182.267 105.618 182.267C105.219 182.267 104.864 182.367 104.552 182.566C104.24 182.765 103.997 183.038 103.824 183.385C103.651 183.732 103.564 184.126 103.564 184.568C103.564 185.01 103.651 185.409 103.824 185.764C103.997 186.111 104.24 186.388 104.552 186.596C104.864 186.795 105.219 186.895 105.618 186.895ZM110.868 188V178.38H112.207V188H110.868Z" fill="#3F4749"/>
<path d="M217.678 66.9V70.787H222.215V66.9H223.619V76H222.215V72.139H217.678V76H216.274V66.9H217.678ZM226.723 67.693C226.419 67.693 226.194 67.615 226.047 67.459C225.899 67.303 225.826 67.0993 225.826 66.848C225.826 66.6313 225.899 66.4363 226.047 66.263C226.194 66.0897 226.419 66.003 226.723 66.003C227.026 66.003 227.251 66.081 227.399 66.237C227.546 66.393 227.62 66.5967 227.62 66.848C227.62 67.0647 227.546 67.2597 227.399 67.433C227.251 67.6063 227.026 67.693 226.723 67.693ZM227.412 76H226.073V69.175H227.412V76ZM230.38 77.131C230.64 77.3303 230.965 77.4907 231.355 77.612C231.745 77.7333 232.126 77.794 232.499 77.794C233.201 77.794 233.738 77.6207 234.111 77.274C234.483 76.936 234.67 76.4247 234.67 75.74V74.908C234.548 75.116 234.375 75.3153 234.15 75.506C233.924 75.688 233.66 75.8397 233.357 75.961C233.053 76.0737 232.737 76.13 232.408 76.13C231.775 76.13 231.203 75.9783 230.692 75.675C230.18 75.3717 229.773 74.9513 229.47 74.414C229.175 73.8767 229.028 73.2657 229.028 72.581C229.028 71.8877 229.175 71.2767 229.47 70.748C229.764 70.2107 230.163 69.7903 230.666 69.487C231.177 69.1837 231.745 69.032 232.369 69.032C232.889 69.032 233.348 69.149 233.747 69.383C234.154 69.6083 234.462 69.8553 234.67 70.124V69.175H236.009V75.584C236.009 76.3987 235.844 77.053 235.515 77.547C235.194 78.0497 234.765 78.4137 234.228 78.639C233.699 78.873 233.123 78.99 232.499 78.99C232.013 78.99 231.528 78.912 231.043 78.756C230.566 78.6087 230.18 78.4137 229.886 78.171L230.38 77.131ZM232.551 70.254C232.135 70.254 231.762 70.358 231.433 70.566C231.112 70.7653 230.856 71.0427 230.666 71.398C230.484 71.7447 230.393 72.139 230.393 72.581C230.393 73.023 230.484 73.4173 230.666 73.764C230.856 74.1107 231.112 74.388 231.433 74.596C231.762 74.7953 232.135 74.895 232.551 74.895C232.984 74.895 233.361 74.7953 233.682 74.596C234.011 74.3967 234.267 74.1237 234.449 73.777C234.631 73.4217 234.722 73.023 234.722 72.581C234.722 72.1303 234.631 71.7317 234.449 71.385C234.267 71.0383 234.011 70.7653 233.682 70.566C233.361 70.358 232.984 70.254 232.551 70.254ZM241.461 69.032C242.077 69.032 242.553 69.1577 242.891 69.409C243.229 69.6603 243.463 69.9983 243.593 70.423C243.732 70.8477 243.801 71.32 243.801 71.84V76H242.462V71.931C242.462 71.6017 242.419 71.307 242.332 71.047C242.246 70.787 242.098 70.5833 241.89 70.436C241.682 70.2887 241.392 70.228 241.019 70.254C240.673 70.254 240.365 70.3277 240.096 70.475C239.828 70.6223 239.615 70.8173 239.459 71.06C239.303 71.3027 239.225 71.5713 239.225 71.866V76H237.886V66.38H239.225V70.254C239.433 69.9333 239.737 69.6517 240.135 69.409C240.534 69.1577 240.976 69.032 241.461 69.032Z" fill="#3F4749"/>
<path d="M349.708 74.648V76H344.209L343.78 74.934L346.562 71.801C346.917 71.4023 347.242 71.0037 347.537 70.605C347.832 70.2063 347.979 69.799 347.979 69.383C347.979 68.9497 347.853 68.6247 347.602 68.408C347.351 68.1827 347.021 68.07 346.614 68.07C346.415 68.07 346.194 68.1307 345.951 68.252C345.708 68.3733 345.479 68.564 345.262 68.824C345.045 69.084 344.872 69.4263 344.742 69.851L343.663 69.175C343.897 68.369 344.3 67.7667 344.872 67.368C345.453 66.9693 346.09 66.77 346.783 66.77C347.277 66.77 347.723 66.874 348.122 67.082C348.521 67.2813 348.837 67.5673 349.071 67.94C349.305 68.3127 349.422 68.759 349.422 69.279C349.422 69.877 349.24 70.4707 348.876 71.06C348.521 71.6407 348.083 72.217 347.563 72.789L345.86 74.648H349.708Z" fill="#3F4749"/>
<path d="M217.652 108.9L220.629 113.749L223.658 108.9H224.958V118H223.554V114.269C223.554 113.723 223.563 113.207 223.58 112.722C223.606 112.228 223.645 111.738 223.697 111.253L221.019 115.387H220.161L217.548 111.266C217.6 111.751 217.635 112.237 217.652 112.722C217.669 113.207 217.678 113.723 217.678 114.269V118H216.274V108.9H217.652ZM233.034 117.103H233.021C232.744 117.372 232.363 117.61 231.877 117.818C231.392 118.026 230.885 118.13 230.356 118.13C229.646 118.13 229.017 117.983 228.471 117.688C227.934 117.385 227.514 116.973 227.21 116.453C226.907 115.924 226.755 115.326 226.755 114.659C226.755 113.896 226.916 113.246 227.236 112.709C227.557 112.163 227.982 111.747 228.51 111.461C229.039 111.166 229.615 111.019 230.239 111.019C230.811 111.019 231.331 111.162 231.799 111.448C232.267 111.725 232.64 112.111 232.917 112.605C233.195 113.099 233.333 113.675 233.333 114.334L233.32 114.906H228.094C228.172 115.521 228.424 116.011 228.848 116.375C229.282 116.73 229.828 116.908 230.486 116.908C230.963 116.908 231.349 116.821 231.643 116.648C231.938 116.466 232.181 116.293 232.371 116.128L233.034 117.103ZM230.239 112.254C229.728 112.254 229.282 112.375 228.9 112.618C228.519 112.852 228.268 113.259 228.146 113.84H231.968V113.749C231.942 113.454 231.843 113.194 231.669 112.969C231.505 112.744 231.297 112.57 231.045 112.449C230.794 112.319 230.525 112.254 230.239 112.254ZM241.185 108.38V118H239.846V117.038C239.646 117.307 239.352 117.558 238.962 117.792C238.572 118.017 238.13 118.13 237.636 118.13C237.02 118.13 236.466 117.978 235.972 117.675C235.478 117.372 235.088 116.951 234.802 116.414C234.516 115.877 234.373 115.266 234.373 114.581C234.373 113.888 234.516 113.277 234.802 112.748C235.088 112.211 235.473 111.79 235.959 111.487C236.444 111.184 236.99 111.032 237.597 111.032C238.082 111.032 238.52 111.132 238.91 111.331C239.308 111.53 239.62 111.764 239.846 112.033V108.38H241.185ZM237.818 116.973C238.234 116.973 238.598 116.869 238.91 116.661C239.222 116.453 239.464 116.167 239.638 115.803C239.811 115.439 239.898 115.032 239.898 114.581C239.898 114.122 239.811 113.714 239.638 113.359C239.464 112.995 239.222 112.709 238.91 112.501C238.598 112.293 238.234 112.189 237.818 112.189C237.41 112.189 237.051 112.293 236.739 112.501C236.427 112.709 236.18 112.995 235.998 113.359C235.824 113.714 235.738 114.122 235.738 114.581C235.738 115.032 235.824 115.439 235.998 115.803C236.18 116.167 236.427 116.453 236.739 116.661C237.051 116.869 237.41 116.973 237.818 116.973ZM243.925 109.693C243.621 109.693 243.396 109.615 243.249 109.459C243.101 109.303 243.028 109.099 243.028 108.848C243.028 108.631 243.101 108.436 243.249 108.263C243.396 108.09 243.621 108.003 243.925 108.003C244.228 108.003 244.453 108.081 244.601 108.237C244.748 108.393 244.822 108.597 244.822 108.848C244.822 109.065 244.748 109.26 244.601 109.433C244.453 109.606 244.228 109.693 243.925 109.693ZM244.614 118H243.275V111.175H244.614V118ZM251.3 115.283V111.175H252.639V118H251.3V116.908C251.101 117.229 250.806 117.515 250.416 117.766C250.035 118.009 249.575 118.13 249.038 118.13C248.327 118.13 247.751 117.887 247.309 117.402C246.867 116.917 246.646 116.245 246.646 115.387V111.175H247.985V115.023C247.985 115.37 248.037 115.69 248.141 115.985C248.254 116.28 248.427 116.518 248.661 116.7C248.904 116.873 249.211 116.96 249.584 116.96C250.052 116.96 250.455 116.813 250.793 116.518C251.131 116.223 251.3 115.812 251.3 115.283ZM257.988 111.058C258.551 111.058 259.002 111.188 259.34 111.448C259.678 111.699 259.921 112.046 260.068 112.488C260.189 112.271 260.367 112.055 260.601 111.838C260.835 111.613 261.108 111.426 261.42 111.279C261.732 111.132 262.066 111.058 262.421 111.058C263.01 111.058 263.47 111.188 263.799 111.448C264.128 111.699 264.358 112.042 264.488 112.475C264.627 112.9 264.696 113.376 264.696 113.905V118H263.344V113.983C263.344 113.48 263.249 113.073 263.058 112.761C262.867 112.449 262.508 112.293 261.979 112.293C261.476 112.293 261.06 112.453 260.731 112.774C260.41 113.086 260.25 113.467 260.25 113.918V118H258.898V113.957C258.898 113.472 258.794 113.073 258.586 112.761C258.378 112.449 258.036 112.293 257.559 112.293C257.23 112.293 256.935 112.367 256.675 112.514C256.415 112.661 256.211 112.856 256.064 113.099C255.917 113.333 255.843 113.597 255.843 113.892V118H254.491V111.175H255.843V112.267C256.051 111.955 256.341 111.678 256.714 111.435C257.095 111.184 257.52 111.058 257.988 111.058Z" fill="#3F4749"/>
<path d="M346.341 118.091C345.682 118.091 345.115 117.939 344.638 117.636C344.17 117.333 343.793 116.956 343.507 116.505L344.287 115.634C344.599 115.981 344.907 116.262 345.21 116.479C345.522 116.696 345.899 116.804 346.341 116.804C346.705 116.804 347.03 116.726 347.316 116.57C347.602 116.405 347.827 116.189 347.992 115.92C348.157 115.651 348.239 115.357 348.239 115.036C348.239 114.681 348.157 114.369 347.992 114.1C347.836 113.823 347.619 113.606 347.342 113.45C347.073 113.294 346.774 113.216 346.445 113.216C346.003 113.216 345.63 113.285 345.327 113.424C345.032 113.563 344.798 113.675 344.625 113.762L343.884 112.761L344.417 108.9H349.331V110.2H345.535L345.236 112.215C345.435 112.128 345.665 112.059 345.925 112.007C346.185 111.946 346.441 111.916 346.692 111.916C347.221 111.916 347.702 112.037 348.135 112.28C348.577 112.523 348.932 112.869 349.201 113.32C349.47 113.762 349.604 114.291 349.604 114.906C349.604 115.513 349.457 116.059 349.162 116.544C348.876 117.021 348.486 117.398 347.992 117.675C347.507 117.952 346.956 118.091 346.341 118.091Z" fill="#3F4749"/>
<path d="M221.942 159.648V161H216.274V151.9H217.678V159.648H221.942ZM230.003 157.581C230.003 158.274 229.847 158.89 229.535 159.427C229.232 159.956 228.816 160.372 228.287 160.675C227.767 160.978 227.182 161.13 226.532 161.13C225.882 161.13 225.293 160.978 224.764 160.675C224.236 160.372 223.815 159.956 223.503 159.427C223.2 158.89 223.048 158.274 223.048 157.581C223.048 156.888 223.2 156.277 223.503 155.748C223.815 155.211 224.236 154.79 224.764 154.487C225.293 154.184 225.882 154.032 226.532 154.032C227.182 154.032 227.767 154.184 228.287 154.487C228.816 154.79 229.232 155.211 229.535 155.748C229.847 156.277 230.003 156.888 230.003 157.581ZM228.638 157.581C228.647 157.122 228.556 156.719 228.365 156.372C228.183 156.017 227.932 155.744 227.611 155.553C227.291 155.354 226.931 155.254 226.532 155.254C226.134 155.254 225.77 155.354 225.44 155.553C225.12 155.744 224.864 156.017 224.673 156.372C224.491 156.719 224.405 157.122 224.413 157.581C224.405 158.032 224.491 158.435 224.673 158.79C224.864 159.137 225.12 159.41 225.44 159.609C225.77 159.808 226.134 159.908 226.532 159.908C226.931 159.908 227.291 159.808 227.611 159.609C227.932 159.41 228.183 159.137 228.365 158.79C228.556 158.435 228.647 158.032 228.638 157.581ZM240.386 154.175L238.085 161H237.162L235.42 157.035L233.795 161H232.885L230.558 154.175L231.91 154.162L233.444 158.868L235.082 155.254H235.888L237.513 158.816L239.034 154.175H240.386Z" fill="#3F4749"/>
<path d="M294.48 189L293.952 187.608H291.608L291.08 189H290.2L292.368 183.4H293.248L295.4 189H294.48ZM292.352 185.656L291.928 186.776H293.64L293.2 185.624C293.131 185.437 293.061 185.237 292.992 185.024C292.923 184.805 292.853 184.587 292.784 184.368C292.709 184.592 292.635 184.816 292.56 185.04C292.491 185.264 292.421 185.469 292.352 185.656ZM299.957 183.08V189H299.133V188.408C299.011 188.573 298.829 188.728 298.589 188.872C298.349 189.011 298.077 189.08 297.773 189.08C297.395 189.08 297.053 188.987 296.749 188.8C296.445 188.613 296.205 188.355 296.029 188.024C295.853 187.693 295.765 187.317 295.765 186.896C295.765 186.469 295.853 186.093 296.029 185.768C296.205 185.437 296.443 185.179 296.741 184.992C297.04 184.805 297.376 184.712 297.749 184.712C298.048 184.712 298.317 184.773 298.557 184.896C298.803 185.019 298.995 185.163 299.133 185.328V183.08H299.957ZM297.885 188.368C298.141 188.368 298.365 188.304 298.557 188.176C298.749 188.048 298.899 187.872 299.005 187.648C299.112 187.424 299.165 187.173 299.165 186.896C299.165 186.613 299.112 186.363 299.005 186.144C298.899 185.92 298.749 185.744 298.557 185.616C298.365 185.488 298.141 185.424 297.885 185.424C297.635 185.424 297.413 185.488 297.221 185.616C297.029 185.744 296.877 185.92 296.765 186.144C296.659 186.363 296.605 186.613 296.605 186.896C296.605 187.173 296.659 187.424 296.765 187.648C296.877 187.872 297.029 188.048 297.221 188.176C297.413 188.304 297.635 188.368 297.885 188.368ZM305.028 183.08V189H304.204V188.408C304.081 188.573 303.9 188.728 303.66 188.872C303.42 189.011 303.148 189.08 302.844 189.08C302.465 189.08 302.124 188.987 301.82 188.8C301.516 188.613 301.276 188.355 301.1 188.024C300.924 187.693 300.836 187.317 300.836 186.896C300.836 186.469 300.924 186.093 301.1 185.768C301.276 185.437 301.513 185.179 301.812 184.992C302.11 184.805 302.446 184.712 302.82 184.712C303.118 184.712 303.388 184.773 303.628 184.896C303.873 185.019 304.065 185.163 304.204 185.328V183.08H305.028ZM302.956 188.368C303.212 188.368 303.436 188.304 303.628 188.176C303.82 188.048 303.969 187.872 304.076 187.648C304.182 187.424 304.236 187.173 304.236 186.896C304.236 186.613 304.182 186.363 304.076 186.144C303.969 185.92 303.82 185.744 303.628 185.616C303.436 185.488 303.212 185.424 302.956 185.424C302.705 185.424 302.484 185.488 302.292 185.616C302.1 185.744 301.948 185.92 301.836 186.144C301.729 186.363 301.676 186.613 301.676 186.896C301.676 187.173 301.729 187.424 301.836 187.648C301.948 187.872 302.1 188.048 302.292 188.176C302.484 188.304 302.705 188.368 302.956 188.368ZM310.604 184.712C310.983 184.712 311.276 184.789 311.484 184.944C311.692 185.099 311.836 185.307 311.916 185.568C312.001 185.829 312.044 186.12 312.044 186.44V189H311.22V186.496C311.22 186.293 311.193 186.112 311.14 185.952C311.087 185.792 310.996 185.667 310.868 185.576C310.74 185.485 310.561 185.448 310.332 185.464C310.119 185.464 309.929 185.509 309.764 185.6C309.599 185.691 309.468 185.811 309.372 185.96C309.276 186.109 309.228 186.275 309.228 186.456V189H308.404V184.8H309.228V185.464C309.356 185.267 309.543 185.093 309.788 184.944C310.033 184.789 310.305 184.712 310.604 184.712ZM316.77 188.448H316.762C316.591 188.613 316.357 188.76 316.058 188.888C315.759 189.016 315.447 189.08 315.122 189.08C314.685 189.08 314.298 188.989 313.962 188.808C313.631 188.621 313.373 188.368 313.186 188.048C312.999 187.723 312.906 187.355 312.906 186.944C312.906 186.475 313.005 186.075 313.202 185.744C313.399 185.408 313.661 185.152 313.986 184.976C314.311 184.795 314.666 184.704 315.05 184.704C315.402 184.704 315.722 184.792 316.01 184.968C316.298 185.139 316.527 185.376 316.698 185.68C316.869 185.984 316.954 186.339 316.954 186.744L316.946 187.096H313.73C313.778 187.475 313.933 187.776 314.194 188C314.461 188.219 314.797 188.328 315.202 188.328C315.495 188.328 315.733 188.275 315.914 188.168C316.095 188.056 316.245 187.949 316.362 187.848L316.77 188.448ZM315.05 185.464C314.735 185.464 314.461 185.539 314.226 185.688C313.991 185.832 313.837 186.083 313.762 186.44H316.114V186.384C316.098 186.203 316.037 186.043 315.93 185.904C315.829 185.765 315.701 185.659 315.546 185.584C315.391 185.504 315.226 185.464 315.05 185.464ZM323.419 184.8L322.003 189H321.435L320.363 186.56L319.363 189H318.803L317.371 184.8L318.203 184.792L319.147 187.688L320.155 185.464H320.651L321.651 187.656L322.587 184.8H323.419ZM326.94 186.896C326.94 187.173 327.001 187.421 327.124 187.64C327.252 187.853 327.417 188.024 327.62 188.152C327.828 188.275 328.049 188.336 328.284 188.336C328.551 188.336 328.783 188.267 328.98 188.128C329.177 187.989 329.337 187.845 329.46 187.696L329.916 188.256C329.815 188.4 329.676 188.536 329.5 188.664C329.324 188.787 329.124 188.888 328.9 188.968C328.676 189.043 328.441 189.08 328.196 189.08C327.812 189.08 327.465 188.984 327.156 188.792C326.847 188.6 326.601 188.339 326.42 188.008C326.244 187.677 326.156 187.307 326.156 186.896C326.156 186.48 326.244 186.109 326.42 185.784C326.601 185.453 326.847 185.192 327.156 185C327.465 184.808 327.812 184.712 328.196 184.712C328.585 184.712 328.932 184.792 329.236 184.952C329.54 185.107 329.767 185.309 329.916 185.56L329.46 186.12C329.337 185.939 329.161 185.784 328.932 185.656C328.708 185.523 328.489 185.456 328.276 185.456C328.025 185.456 327.799 185.52 327.596 185.648C327.393 185.771 327.233 185.941 327.116 186.16C326.999 186.373 326.94 186.619 326.94 186.896ZM332.893 184.712C333.272 184.712 333.565 184.789 333.773 184.944C333.981 185.099 334.125 185.307 334.205 185.568C334.291 185.829 334.333 186.12 334.333 186.44V189H333.509V186.496C333.509 186.293 333.483 186.112 333.429 185.952C333.376 185.792 333.285 185.667 333.157 185.576C333.029 185.485 332.851 185.448 332.621 185.464C332.408 185.464 332.219 185.509 332.053 185.6C331.888 185.691 331.757 185.811 331.661 185.96C331.565 186.109 331.517 186.275 331.517 186.456V189H330.693V183.08H331.517V185.464C331.645 185.267 331.832 185.093 332.077 184.944C332.323 184.789 332.595 184.712 332.893 184.712ZM339.363 184.8V189H338.531V188.352C338.403 188.528 338.214 188.693 337.963 188.848C337.712 189.003 337.422 189.08 337.091 189.08C336.739 189.08 336.416 188.987 336.123 188.8C335.835 188.613 335.606 188.355 335.435 188.024C335.264 187.693 335.179 187.315 335.179 186.888C335.179 186.461 335.267 186.085 335.443 185.76C335.619 185.429 335.862 185.173 336.171 184.992C336.48 184.805 336.832 184.712 337.227 184.712C337.52 184.712 337.776 184.776 337.995 184.904C338.219 185.032 338.398 185.181 338.531 185.352V184.8H339.363ZM337.283 188.32C337.539 188.32 337.763 188.259 337.955 188.136C338.147 188.008 338.296 187.837 338.403 187.624C338.51 187.405 338.563 187.16 338.563 186.888C338.563 186.621 338.51 186.381 338.403 186.168C338.296 185.955 338.147 185.787 337.955 185.664C337.763 185.536 337.539 185.472 337.283 185.472C337.038 185.472 336.819 185.533 336.627 185.656C336.435 185.779 336.286 185.947 336.179 186.16C336.072 186.373 336.019 186.616 336.019 186.888C336.019 187.16 336.072 187.405 336.179 187.624C336.286 187.837 336.435 188.008 336.627 188.136C336.819 188.259 337.038 188.32 337.283 188.32ZM342.714 184.712C343.092 184.712 343.386 184.789 343.594 184.944C343.802 185.099 343.946 185.307 344.026 185.568C344.111 185.829 344.154 186.12 344.154 186.44V189H343.33V186.496C343.33 186.293 343.303 186.112 343.25 185.952C343.196 185.792 343.106 185.667 342.978 185.576C342.85 185.485 342.671 185.448 342.442 185.464C342.228 185.464 342.039 185.509 341.874 185.6C341.708 185.691 341.578 185.811 341.482 185.96C341.386 186.109 341.338 186.275 341.338 186.456V189H340.514V184.8H341.338V185.464C341.466 185.267 341.652 185.093 341.898 184.944C342.143 184.789 342.415 184.712 342.714 184.712ZM347.471 184.712C347.85 184.712 348.143 184.789 348.351 184.944C348.559 185.099 348.703 185.307 348.783 185.568C348.869 185.829 348.911 186.12 348.911 186.44V189H348.087V186.496C348.087 186.293 348.061 186.112 348.007 185.952C347.954 185.792 347.863 185.667 347.735 185.576C347.607 185.485 347.429 185.448 347.199 185.464C346.986 185.464 346.797 185.509 346.631 185.6C346.466 185.691 346.335 185.811 346.239 185.96C346.143 186.109 346.095 186.275 346.095 186.456V189H345.271V184.8H346.095V185.464C346.223 185.267 346.41 185.093 346.655 184.944C346.901 184.789 347.173 184.712 347.471 184.712ZM353.637 188.448H353.629C353.458 188.613 353.224 188.76 352.925 188.888C352.626 189.016 352.314 189.08 351.989 189.08C351.552 189.08 351.165 188.989 350.829 188.808C350.498 188.621 350.24 188.368 350.053 188.048C349.866 187.723 349.773 187.355 349.773 186.944C349.773 186.475 349.872 186.075 350.069 185.744C350.266 185.408 350.528 185.152 350.853 184.976C351.178 184.795 351.533 184.704 351.917 184.704C352.269 184.704 352.589 184.792 352.877 184.968C353.165 185.139 353.394 185.376 353.565 185.68C353.736 185.984 353.821 186.339 353.821 186.744L353.813 187.096H350.597C350.645 187.475 350.8 187.776 351.061 188C351.328 188.219 351.664 188.328 352.069 188.328C352.362 188.328 352.6 188.275 352.781 188.168C352.962 188.056 353.112 187.949 353.229 187.848L353.637 188.448ZM351.917 185.464C351.602 185.464 351.328 185.539 351.093 185.688C350.858 185.832 350.704 186.083 350.629 186.44H352.981V186.384C352.965 186.203 352.904 186.043 352.797 185.904C352.696 185.765 352.568 185.659 352.413 185.584C352.258 185.504 352.093 185.464 351.917 185.464ZM354.717 189V183.08H355.541V189H354.717Z" fill="#040959"/>
<path d="M349.708 159.648V161H344.209L343.78 159.934L346.562 156.801C346.917 156.402 347.242 156.004 347.537 155.605C347.832 155.206 347.979 154.799 347.979 154.383C347.979 153.95 347.853 153.625 347.602 153.408C347.351 153.183 347.021 153.07 346.614 153.07C346.415 153.07 346.194 153.131 345.951 153.252C345.708 153.373 345.479 153.564 345.262 153.824C345.045 154.084 344.872 154.426 344.742 154.851L343.663 154.175C343.897 153.369 344.3 152.767 344.872 152.368C345.453 151.969 346.09 151.77 346.783 151.77C347.277 151.77 347.723 151.874 348.122 152.082C348.521 152.281 348.837 152.567 349.071 152.94C349.305 153.313 349.422 153.759 349.422 154.279C349.422 154.877 349.24 155.471 348.876 156.06C348.521 156.641 348.083 157.217 347.563 157.789L345.86 159.648H349.708ZM351.578 161L355.153 153.2H350.902V151.9H356.531L356.713 152.797L353.086 161H351.578Z" fill="#3F4749"/>
<path d="M42.003 38V30.252H39.455V28.9H46.033V30.252H43.407V38H42.003ZM48.3232 29.693C48.0199 29.693 47.7946 29.615 47.6472 29.459C47.4999 29.303 47.4262 29.0993 47.4262 28.848C47.4262 28.6313 47.4999 28.4363 47.6472 28.263C47.7946 28.0897 48.0199 28.003 48.3232 28.003C48.6266 28.003 48.8519 28.081 48.9992 28.237C49.1466 28.393 49.2202 28.5967 49.2202 28.848C49.2202 29.0647 49.1466 29.2597 48.9992 29.433C48.8519 29.6063 48.6266 29.693 48.3232 29.693ZM49.0122 38H47.6732V31.175H49.0122V38ZM51.9024 34.581C51.9024 35.0317 52.0021 35.4347 52.2014 35.79C52.4094 36.1367 52.6781 36.414 53.0074 36.622C53.3454 36.8213 53.7051 36.921 54.0864 36.921C54.5197 36.921 54.8967 36.8083 55.2174 36.583C55.5381 36.3577 55.7981 36.1237 55.9974 35.881L56.7384 36.791C56.5737 37.025 56.3484 37.246 56.0624 37.454C55.7764 37.6533 55.4514 37.818 55.0874 37.948C54.7234 38.0693 54.3421 38.13 53.9434 38.13C53.3194 38.13 52.7561 37.974 52.2534 37.662C51.7507 37.35 51.3521 36.9253 51.0574 36.388C50.7714 35.8507 50.6284 35.2483 50.6284 34.581C50.6284 33.905 50.7714 33.3027 51.0574 32.774C51.3521 32.2367 51.7507 31.812 52.2534 31.5C52.7561 31.188 53.3194 31.032 53.9434 31.032C54.5761 31.032 55.1394 31.162 55.6334 31.422C56.1274 31.6733 56.4957 32.0027 56.7384 32.41L55.9974 33.32C55.7981 33.0253 55.5121 32.774 55.1394 32.566C54.7754 32.3493 54.4201 32.241 54.0734 32.241C53.6661 32.241 53.2977 32.345 52.9684 32.553C52.6391 32.7523 52.3791 33.0297 52.1884 33.385C51.9977 33.7317 51.9024 34.1303 51.9024 34.581ZM58.0014 38V28.38H59.3404V34.23L62.4214 31.175H64.2284L61.0304 34.178L64.3194 38H62.6034L60.0814 35.062L59.3404 35.764V38H58.0014ZM70.9611 37.103H70.9481C70.6708 37.3717 70.2894 37.61 69.8041 37.818C69.3188 38.026 68.8118 38.13 68.2831 38.13C67.5724 38.13 66.9441 37.9827 66.3981 37.688C65.8608 37.3847 65.4404 36.973 65.1371 36.453C64.8338 35.9243 64.6821 35.3263 64.6821 34.659C64.6821 33.8963 64.8424 33.2463 65.1631 32.709C65.4838 32.163 65.9084 31.747 66.4371 31.461C66.9658 31.1663 67.5421 31.019 68.1661 31.019C68.7381 31.019 69.2581 31.162 69.7261 31.448C70.1941 31.7253 70.5668 32.111 70.8441 32.605C71.1214 33.099 71.2601 33.6753 71.2601 34.334L71.2471 34.906H66.0211C66.0991 35.5213 66.3504 36.011 66.7751 36.375C67.2084 36.7303 67.7544 36.908 68.4131 36.908C68.8898 36.908 69.2754 36.8213 69.5701 36.648C69.8648 36.466 70.1074 36.2927 70.2981 36.128L70.9611 37.103ZM68.1661 32.254C67.6548 32.254 67.2084 32.3753 66.8271 32.618C66.4458 32.852 66.1944 33.2593 66.0731 33.84H69.8951V33.749C69.8691 33.4543 69.7694 33.1943 69.5961 32.969C69.4314 32.7437 69.2234 32.5703 68.9721 32.449C68.7208 32.319 68.4521 32.254 68.1661 32.254ZM74.8993 38H73.5603V32.475H72.1433V31.175H73.5603V29.433H74.8993V31.175H76.4853V32.475H74.8993V38ZM81.8975 32.969C81.6548 32.7263 81.3775 32.527 81.0655 32.371C80.7621 32.215 80.4805 32.137 80.2205 32.137C80.0385 32.137 79.8565 32.1587 79.6745 32.202C79.5011 32.2453 79.3538 32.3277 79.2325 32.449C79.1111 32.5617 79.0505 32.7307 79.0505 32.956C79.0591 33.268 79.1978 33.489 79.4665 33.619C79.7438 33.749 80.0861 33.866 80.4935 33.97C80.8488 34.0653 81.1955 34.1867 81.5335 34.334C81.8715 34.4727 82.1488 34.6807 82.3655 34.958C82.5908 35.2267 82.7035 35.608 82.7035 36.102C82.7035 36.5267 82.5821 36.8907 82.3395 37.194C82.1055 37.4973 81.7978 37.7313 81.4165 37.896C81.0438 38.052 80.6495 38.13 80.2335 38.13C79.7395 38.13 79.2498 38.0433 78.7645 37.87C78.2878 37.688 77.8805 37.3803 77.5425 36.947L78.4525 36.167C78.6865 36.4357 78.9508 36.648 79.2455 36.804C79.5488 36.9513 79.9171 37.025 80.3505 37.025C80.5151 37.025 80.6798 36.999 80.8445 36.947C81.0091 36.8863 81.1478 36.7953 81.2605 36.674C81.3818 36.544 81.4425 36.3707 81.4425 36.154C81.4425 35.946 81.3775 35.7857 81.2475 35.673C81.1261 35.5517 80.9615 35.4563 80.7535 35.387C80.5455 35.309 80.3158 35.2397 80.0645 35.179C79.6918 35.075 79.3235 34.9493 78.9595 34.802C78.6041 34.646 78.3051 34.4293 78.0625 34.152C77.8285 33.866 77.7115 33.4803 77.7115 32.995C77.7115 32.5877 77.8241 32.241 78.0495 31.955C78.2835 31.6603 78.5868 31.435 78.9595 31.279C79.3321 31.1143 79.7308 31.032 80.1555 31.032C80.5628 31.032 81.0048 31.1187 81.4815 31.292C81.9581 31.4653 82.3525 31.7427 82.6645 32.124L81.8975 32.969ZM91.3717 31.032C91.9784 31.032 92.5201 31.1837 92.9967 31.487C93.4821 31.7817 93.8634 32.1977 94.1407 32.735C94.4181 33.2637 94.5567 33.8747 94.5567 34.568C94.5567 35.2613 94.4181 35.8767 94.1407 36.414C93.8634 36.9513 93.4864 37.3717 93.0097 37.675C92.5331 37.9783 92.0001 38.13 91.4107 38.13C90.9254 38.13 90.4834 38.026 90.0847 37.818C89.6947 37.6013 89.3871 37.3587 89.1617 37.09V37.961H87.8227V28.38H89.1617V32.163C89.3611 31.877 89.6601 31.617 90.0587 31.383C90.4574 31.149 90.8951 31.032 91.3717 31.032ZM91.1897 32.254C90.7824 32.254 90.4184 32.3537 90.0977 32.553C89.7857 32.7523 89.5387 33.0297 89.3567 33.385C89.1834 33.7317 89.0967 34.126 89.0967 34.568C89.0967 35.01 89.1834 35.4087 89.3567 35.764C89.5387 36.1107 89.7857 36.388 90.0977 36.596C90.4184 36.804 90.7824 36.908 91.1897 36.908C91.5971 36.908 91.9567 36.804 92.2687 36.596C92.5807 36.388 92.8234 36.1107 92.9967 35.764C93.1787 35.4087 93.2697 35.01 93.2697 34.568C93.2697 34.126 93.1787 33.7317 92.9967 33.385C92.8234 33.0297 92.5807 32.7523 92.2687 32.553C91.9567 32.3537 91.5971 32.254 91.1897 32.254ZM96.9013 40.99L98.0193 38.429L98.0583 38.338L94.8863 31.175H96.4463L98.5783 36.193C98.6043 36.245 98.6303 36.31 98.6563 36.388C98.6823 36.466 98.7126 36.5527 98.7473 36.648C98.782 36.5527 98.8123 36.4617 98.8383 36.375C98.873 36.2797 98.9076 36.1887 98.9423 36.102L100.723 31.175H102.309L99.5013 38L98.3443 40.99H96.9013ZM110.517 31.058C111.123 31.058 111.665 31.2097 112.142 31.513C112.627 31.8077 113.008 32.2193 113.286 32.748C113.563 33.2767 113.702 33.8877 113.702 34.581C113.702 35.2657 113.563 35.8767 113.286 36.414C113.008 36.9427 112.631 37.3587 112.155 37.662C111.678 37.9653 111.145 38.117 110.556 38.117C110.07 38.117 109.628 38.013 109.23 37.805C108.84 37.597 108.532 37.3587 108.307 37.09V40.86H106.955V31.162H108.307V32.163C108.506 31.877 108.805 31.6213 109.204 31.396C109.602 31.1707 110.04 31.058 110.517 31.058ZM110.335 32.293C109.927 32.293 109.563 32.3927 109.243 32.592C108.931 32.7913 108.684 33.0643 108.502 33.411C108.328 33.749 108.242 34.139 108.242 34.581C108.242 35.0143 108.328 35.4043 108.502 35.751C108.684 36.0977 108.931 36.375 109.243 36.583C109.563 36.7823 109.927 36.882 110.335 36.882C110.742 36.882 111.102 36.7823 111.414 36.583C111.726 36.375 111.968 36.0977 112.142 35.751C112.324 35.4043 112.415 35.0143 112.415 34.581C112.415 34.139 112.324 33.749 112.142 33.411C111.968 33.0643 111.726 32.7913 111.414 32.592C111.102 32.3927 110.742 32.293 110.335 32.293ZM118.978 32.618C118.891 32.5747 118.783 32.54 118.653 32.514C118.531 32.4793 118.401 32.462 118.263 32.462C117.985 32.462 117.712 32.5357 117.444 32.683C117.175 32.8217 116.95 33.0253 116.768 33.294C116.594 33.554 116.508 33.866 116.508 34.23V38H115.156V31.175H116.508V32.462C116.698 32.046 116.984 31.7037 117.366 31.435C117.756 31.1663 118.163 31.032 118.588 31.032C118.908 31.032 119.155 31.0753 119.329 31.162L118.978 32.618ZM121.296 29.693C120.993 29.693 120.767 29.615 120.62 29.459C120.473 29.303 120.399 29.0993 120.399 28.848C120.399 28.6313 120.473 28.4363 120.62 28.263C120.767 28.0897 120.993 28.003 121.296 28.003C121.599 28.003 121.825 28.081 121.972 28.237C122.119 28.393 122.193 28.5967 122.193 28.848C122.193 29.0647 122.119 29.2597 121.972 29.433C121.825 29.6063 121.599 29.693 121.296 29.693ZM121.985 38H120.646V31.175H121.985V38ZM130.556 34.581C130.556 35.2743 130.4 35.8897 130.088 36.427C129.785 36.9557 129.369 37.3717 128.84 37.675C128.32 37.9783 127.735 38.13 127.085 38.13C126.435 38.13 125.846 37.9783 125.317 37.675C124.788 37.3717 124.368 36.9557 124.056 36.427C123.753 35.8897 123.601 35.2743 123.601 34.581C123.601 33.8877 123.753 33.2767 124.056 32.748C124.368 32.2107 124.788 31.7903 125.317 31.487C125.846 31.1837 126.435 31.032 127.085 31.032C127.735 31.032 128.32 31.1837 128.84 31.487C129.369 31.7903 129.785 32.2107 130.088 32.748C130.4 33.2767 130.556 33.8877 130.556 34.581ZM129.191 34.581C129.2 34.1217 129.109 33.7187 128.918 33.372C128.736 33.0167 128.485 32.7437 128.164 32.553C127.843 32.3537 127.484 32.254 127.085 32.254C126.686 32.254 126.322 32.3537 125.993 32.553C125.672 32.7437 125.417 33.0167 125.226 33.372C125.044 33.7187 124.957 34.1217 124.966 34.581C124.957 35.0317 125.044 35.4347 125.226 35.79C125.417 36.1367 125.672 36.4097 125.993 36.609C126.322 36.8083 126.686 36.908 127.085 36.908C127.484 36.908 127.843 36.8083 128.164 36.609C128.485 36.4097 128.736 36.1367 128.918 35.79C129.109 35.4347 129.2 35.0317 129.191 34.581ZM135.837 32.618C135.75 32.5747 135.642 32.54 135.512 32.514C135.391 32.4793 135.261 32.462 135.122 32.462C134.845 32.462 134.572 32.5357 134.303 32.683C134.034 32.8217 133.809 33.0253 133.627 33.294C133.454 33.554 133.367 33.866 133.367 34.23V38H132.015V31.175H133.367V32.462C133.558 32.046 133.844 31.7037 134.225 31.435C134.615 31.1663 135.022 31.032 135.447 31.032C135.768 31.032 136.015 31.0753 136.188 31.162L135.837 32.618ZM138.155 29.693C137.852 29.693 137.627 29.615 137.479 29.459C137.332 29.303 137.258 29.0993 137.258 28.848C137.258 28.6313 137.332 28.4363 137.479 28.263C137.627 28.0897 137.852 28.003 138.155 28.003C138.459 28.003 138.684 28.081 138.831 28.237C138.979 28.393 139.052 28.5967 139.052 28.848C139.052 29.0647 138.979 29.2597 138.831 29.433C138.684 29.6063 138.459 29.693 138.155 29.693ZM138.844 38H137.505V31.175H138.844V38ZM143.06 38H141.721V32.475H140.304V31.175H141.721V29.433H143.06V31.175H144.646V32.475H143.06V38ZM147.01 40.99L148.128 38.429L148.167 38.338L144.995 31.175H146.555L148.687 36.193C148.713 36.245 148.739 36.31 148.765 36.388C148.791 36.466 148.821 36.5527 148.856 36.648C148.89 36.5527 148.921 36.4617 148.947 36.375C148.981 36.2797 149.016 36.1887 149.051 36.102L150.832 31.175H152.418L149.61 38L148.453 40.99H147.01Z" fill="#3F4749"/>
<rect x="0.65" y="0.65" width="405.7" height="225.7" rx="12.35" stroke="#040959" stroke-width="1.3"/>
<circle cx="204" cy="70" r="5" fill="#040959"/>
<circle cx="204" cy="113" r="5" fill="#19E336"/>
<circle cx="204" cy="156" r="5" fill="#707070"/>
</svg>
