<svg width="23" height="23" viewBox="0 0 23 23" fill="none" xmlns="http://www.w3.org/2000/svg">
<path d="M5.93903 14.4349L3.81231 12.3263H14.7607C14.9952 12.3263 15.1983 12.2447 15.3558 12.0783C15.5098 11.9158 15.587 11.7163 15.587 11.4897C15.587 11.2631 15.5096 11.0651 15.3526 10.9081C15.1944 10.7498 14.9923 10.6737 14.7607 10.6737H3.85085L5.93954 8.58505C6.09656 8.42804 6.17391 8.23004 6.17391 8.00342C6.17391 7.7768 6.09656 7.5788 5.93954 7.42178L5.9399 7.42143L5.92997 7.41292C5.81851 7.31738 5.69593 7.24714 5.56243 7.20541C5.41909 7.16062 5.27189 7.16149 5.12537 7.20458C4.98312 7.24642 4.85881 7.31874 4.75577 7.42178L4.75576 7.42177L4.75421 7.42336L0.878233 11.4019L0.762662 11.5205L0.878233 11.6391L4.75421 15.6177L4.76156 15.6252L4.76978 15.6318C4.85073 15.6965 4.9397 15.749 5.03618 15.7892C5.13719 15.8313 5.24137 15.8536 5.34766 15.8536C5.56897 15.8536 5.76632 15.7754 5.93306 15.6254L5.93322 15.6256L5.93954 15.6192C5.99416 15.5646 6.03886 15.5016 6.07393 15.4315C6.10635 15.3666 6.1314 15.3003 6.14832 15.2326C6.16526 15.1649 6.17391 15.0964 6.17391 15.0273C6.17391 14.9583 6.16526 14.8898 6.14832 14.8221C6.1314 14.7544 6.10635 14.688 6.07393 14.6232C6.03886 14.5531 5.99416 14.4901 5.93955 14.4355L5.93903 14.4349ZM8.04875 8.21875V8.38875H8.21875H9.53125H9.70125V8.21875V3.1123C9.70125 3.00535 9.72763 2.90379 9.7824 2.80522C9.83614 2.70848 9.9109 2.63063 10.0095 2.57035C10.1047 2.51218 10.2105 2.4825 10.3311 2.4825H19.8672C20.0398 2.4825 20.1799 2.54235 20.298 2.66585C20.418 2.79125 20.4765 2.93707 20.4765 3.1123V3.11251L20.497 19.8877C20.497 19.8878 20.497 19.8878 20.497 19.8879C20.497 20.063 20.4385 20.2088 20.3186 20.3342C20.2004 20.4576 20.0603 20.5175 19.8877 20.5175H10.3311C10.1582 20.5175 10.0132 20.4574 9.8873 20.3315C9.76136 20.2055 9.70125 20.0605 9.70125 19.8877V14.7607V14.5907H9.53125H8.21875H8.04875V14.7607V20.6875C8.04875 21.1001 8.192 21.4549 8.47794 21.7408C8.76387 22.0267 9.11864 22.17 9.53125 22.17H20.6875C20.7837 22.17 20.882 22.158 20.9821 22.1349C21.0768 22.113 21.1655 22.0872 21.248 22.0572C21.3361 22.0252 21.4223 21.9818 21.5068 21.9281C21.5942 21.8725 21.6714 21.8078 21.7374 21.7335C21.7965 21.667 21.8519 21.5969 21.9034 21.5233C21.9587 21.4442 22.0055 21.3582 22.0441 21.2656C22.0814 21.1761 22.1115 21.086 22.1342 20.9953C22.1584 20.8982 22.17 20.7953 22.17 20.6875V2.3125C22.17 2.01979 22.1041 1.75717 21.9654 1.53141C21.8269 1.30573 21.6219 1.1271 21.36 0.992376L21.36 0.992366L21.3583 0.991502C21.1443 0.884525 20.9201 0.83 20.6875 0.83H9.53125C9.11864 0.83 8.76387 0.973253 8.47794 1.25919C8.192 1.54512 8.04875 1.89989 8.04875 2.3125V8.21875Z" fill="white" stroke="white" stroke-width="0.34"/>
</svg>
