<svg width="13" height="13" viewBox="0 0 13 13" fill="none" xmlns="http://www.w3.org/2000/svg">
<path d="M5.95005 13C6.93106 13 7.75169 12.3007 7.94014 11.375H3.95996C4.14851 12.3007 4.96914 13 5.95005 13Z" fill="#040959"/>
<path d="M9.74835 6.49951C9.74617 6.49951 9.74399 6.50001 9.74181 6.50001C7.65154 6.50001 5.95017 4.79913 5.95017 2.70837C5.95017 2.13361 6.08238 1.59029 6.31259 1.10172C6.19337 1.09042 6.07257 1.08337 5.95017 1.08337C3.85614 1.08337 2.15854 2.78088 2.15854 4.87501V6.38515C2.15854 7.45712 1.68891 8.46897 0.865007 9.16553C0.590372 9.40009 0.468477 9.77381 0.567064 10.1384C0.681917 10.5625 1.10116 10.8334 1.54103 10.8334H10.3566C10.8181 10.8334 11.2531 10.5343 11.3468 10.0821C11.4194 9.73215 11.2948 9.38274 11.0234 9.15472C10.2358 8.49446 9.78029 7.52426 9.74835 6.49951Z" fill="#040959"/>
<path d="M12.4503 2.70837C12.4503 4.20413 11.2378 5.41663 9.74196 5.41663C8.24619 5.41663 7.03369 4.20413 7.03369 2.70837C7.03369 1.2126 8.24619 0 9.74196 0C11.2378 0 12.4503 1.2126 12.4503 2.70837Z" fill="#19E336"/>
</svg>
