<svg width="21" height="21" viewBox="0 0 21 21" fill="none" xmlns="http://www.w3.org/2000/svg">
<path fill-rule="evenodd" clip-rule="evenodd" d="M14.318 7.63642C14.318 8.64906 13.9157 9.62023 13.1997 10.3363C12.4836 11.0523 11.5125 11.4546 10.4998 11.4546C9.48718 11.4546 8.51601 11.0523 7.79996 10.3363C7.08391 9.62023 6.68164 8.64906 6.68164 7.63642C6.68164 6.62377 7.08391 5.6526 7.79996 4.93656C8.51601 4.22051 9.48718 3.81824 10.4998 3.81824C11.5125 3.81824 12.4836 4.22051 13.1997 4.93656C13.9157 5.6526 14.318 6.62377 14.318 7.63642ZM12.4089 7.63642C12.4089 8.14274 12.2078 8.62833 11.8498 8.98635C11.4917 9.34437 11.0061 9.54551 10.4998 9.54551C9.9935 9.54551 9.50792 9.34437 9.14989 8.98635C8.79187 8.62833 8.59073 8.14274 8.59073 7.63642C8.59073 7.1301 8.79187 6.64451 9.14989 6.28649C9.50792 5.92846 9.9935 5.72733 10.4998 5.72733C11.0061 5.72733 11.4917 5.92846 11.8498 6.28649C12.2078 6.64451 12.4089 7.1301 12.4089 7.63642Z" fill="white"/>
<path fill-rule="evenodd" clip-rule="evenodd" d="M10.5 0C4.70114 0 0 4.70114 0 10.5C0 16.2989 4.70114 21 10.5 21C16.2989 21 21 16.2989 21 10.5C21 4.70114 16.2989 0 10.5 0ZM1.90909 10.5C1.90909 12.495 2.58968 14.3315 3.73036 15.7901C4.53145 14.7381 5.5649 13.8855 6.75 13.299C7.9351 12.7125 9.23976 12.4079 10.562 12.4091C11.8672 12.4079 13.1555 12.7045 14.3286 13.2766C15.5018 13.8486 16.5289 14.6808 17.3317 15.7099C18.1587 14.6252 18.7156 13.3591 18.9562 12.0164C19.1968 10.6737 19.1142 9.29301 18.7153 7.98858C18.3164 6.68414 17.6125 5.49345 16.6621 4.51504C15.7116 3.53662 14.5418 2.79859 13.2495 2.36203C11.9571 1.92547 10.5794 1.80292 9.23032 2.00452C7.88123 2.20612 6.59953 2.72608 5.49128 3.52137C4.38303 4.31666 3.48009 5.36442 2.85717 6.57796C2.23425 7.7915 1.90926 9.13592 1.90909 10.5ZM10.5 19.0909C8.52786 19.0939 6.61525 18.4154 5.08582 17.1704C5.70143 16.2891 6.52082 15.5695 7.47427 15.0729C8.42773 14.5763 9.48702 14.3174 10.562 14.3182C11.6237 14.3173 12.6701 14.5698 13.6146 15.0545C14.5591 15.5393 15.3743 16.2424 15.9925 17.1055C14.4511 18.3909 12.507 19.0937 10.5 19.0909Z" fill="white"/>
</svg>
