<svg width="13" height="13" viewBox="0 0 13 13" fill="none" xmlns="http://www.w3.org/2000/svg">
<path d="M12.5847 11.8409L9.4907 8.623C10.2862 7.67732 10.7221 6.48745 10.7221 5.24874C10.7221 2.35463 8.36747 0 5.47335 0C2.57924 0 0.224609 2.35463 0.224609 5.24874C0.224609 8.14286 2.57924 10.4975 5.47335 10.4975C6.55984 10.4975 7.59522 10.1698 8.48043 9.5477L11.598 12.7901C11.7283 12.9254 11.9035 13 12.0913 13C12.2691 13 12.4378 12.9322 12.5658 12.809C12.8378 12.5472 12.8465 12.1132 12.5847 11.8409ZM5.47335 1.36924C7.61256 1.36924 9.35286 3.10954 9.35286 5.24874C9.35286 7.38795 7.61256 9.12825 5.47335 9.12825C3.33415 9.12825 1.59385 7.38795 1.59385 5.24874C1.59385 3.10954 3.33415 1.36924 5.47335 1.36924Z" fill="#040959"/>
</svg>
