<svg width="21" height="21" viewBox="0 0 21 21" fill="none" xmlns="http://www.w3.org/2000/svg">
<path d="M18.4927 11.0716V10.5V9.92086L19.9368 8.65728C20.203 8.42266 20.3777 8.10148 20.43 7.75052C20.4823 7.39955 20.4088 7.0414 20.2226 6.73935L18.4476 3.73084C18.3157 3.50239 18.126 3.31264 17.8977 3.18063C17.6693 3.04861 17.4102 2.97898 17.1464 2.97871C16.9829 2.97746 16.8204 3.00286 16.6651 3.05392L14.8374 3.67067C14.5218 3.46098 14.1927 3.27253 13.8521 3.10657L13.4685 1.2112C13.3997 0.864928 13.2113 0.553874 12.9363 0.332494C12.6613 0.111113 12.3172 -0.00648801 11.9642 0.000276356H8.44428C8.0913 -0.00648801 7.74719 0.111113 7.47219 0.332494C7.19718 0.553874 7.0088 0.864928 6.94002 1.2112L6.55644 3.10657C6.21341 3.27249 5.88175 3.46093 5.56362 3.67067L3.77356 3.02384C3.61659 2.98294 3.45403 2.9677 3.29219 2.97871C3.0284 2.97898 2.76932 3.04861 2.54094 3.18063C2.31256 3.31264 2.12291 3.50239 1.99101 3.73084L0.215986 6.73935C0.0404296 7.04095 -0.0248065 7.3942 0.0314509 7.73861C0.0877084 8.08301 0.261959 8.39714 0.524359 8.6272L1.94588 9.92838V11.0791L0.524359 12.3427C0.254547 12.5744 0.0755303 12.8941 0.0190779 13.2452C-0.0373745 13.5963 0.0323885 13.9561 0.215986 14.2606L1.99101 17.2692C2.12291 17.4976 2.31256 17.6874 2.54094 17.8194C2.76932 17.9514 3.0284 18.021 3.29219 18.0213C3.45567 18.0225 3.61826 17.9971 3.77356 17.9461L5.60123 17.3293C5.91678 17.539 6.24594 17.7275 6.58652 17.8934L6.97011 19.7888C7.03888 20.1351 7.22727 20.4461 7.50227 20.6675C7.77728 20.8889 8.12139 21.0065 8.47436 20.9997H12.0244C12.3774 21.0065 12.7215 20.8889 12.9965 20.6675C13.2715 20.4461 13.4599 20.1351 13.5287 19.7888L13.9123 17.8934C14.2553 17.7275 14.5869 17.5391 14.9051 17.3293L16.7252 17.9461C16.8805 17.9971 17.0431 18.0225 17.2066 18.0213C17.4704 18.021 17.7295 17.9514 17.9578 17.8194C18.1862 17.6874 18.3759 17.4976 18.5078 17.2692L20.2226 14.2606C20.3982 13.9591 20.4634 13.6058 20.4072 13.2614C20.3509 12.917 20.1766 12.6029 19.9142 12.3728L18.4927 11.0716ZM17.1464 16.517L14.5666 15.6446C13.9627 16.1561 13.2725 16.556 12.5283 16.8254L11.9943 19.5256H8.44428L7.91027 16.8555C7.17199 16.5784 6.48552 16.1792 5.87952 15.6746L3.29219 16.517L1.51717 13.5085L3.56296 11.7034C3.42389 10.9248 3.42389 10.1278 3.56296 9.34924L1.51717 7.49148L3.29219 4.48297L5.872 5.35544C6.47591 4.84391 7.16611 4.44405 7.91027 4.17459L8.44428 1.47445H11.9943L12.5283 4.14451C13.2666 4.42161 13.9531 4.82078 14.5591 5.32535L17.1464 4.48297L18.9214 7.49148L16.8756 9.29659C17.0147 10.0752 17.0147 10.8722 16.8756 11.6508L18.9214 13.5085L17.1464 16.517Z" fill="#F9F9FA"/>
<path d="M10.2193 15.0127C9.32678 15.0127 8.45428 14.7481 7.71216 14.2522C6.97003 13.7563 6.39162 13.0515 6.05006 12.2269C5.7085 11.4023 5.61913 10.495 5.79326 9.61956C5.96738 8.74417 6.39718 7.94007 7.02831 7.30895C7.65943 6.67782 8.46353 6.24802 9.33892 6.0739C10.2143 5.89977 11.1217 5.98914 11.9463 6.3307C12.7709 6.67226 13.4757 7.25067 13.9716 7.9928C14.4674 8.73492 14.7321 9.60742 14.7321 10.5C14.7381 11.0943 14.6255 11.6838 14.4009 12.234C14.1762 12.7843 13.844 13.2842 13.4238 13.7044C13.0035 14.1247 12.5036 14.4569 11.9534 14.6815C11.4032 14.9062 10.8136 15.0188 10.2193 15.0127ZM10.2193 7.49144C9.8217 7.48218 9.42634 7.55367 9.05714 7.70158C8.68794 7.84949 8.35259 8.07076 8.07135 8.35199C7.79012 8.63323 7.56885 8.96858 7.42094 9.33778C7.27303 9.70698 7.20154 10.1023 7.2108 10.5C7.20154 10.8976 7.27303 11.2929 7.42094 11.6621C7.56885 12.0313 7.79012 12.3667 8.07135 12.6479C8.35259 12.9292 8.68794 13.1504 9.05714 13.2983C9.42634 13.4463 9.8217 13.5177 10.2193 13.5085C10.6169 13.5177 11.0123 13.4463 11.3815 13.2983C11.7507 13.1504 12.0861 12.9292 12.3673 12.6479C12.6485 12.3667 12.8698 12.0313 13.0177 11.6621C13.1656 11.2929 13.2371 10.8976 13.2278 10.5C13.2371 10.1023 13.1656 9.70698 13.0177 9.33778C12.8698 8.96858 12.6485 8.63323 12.3673 8.35199C12.0861 8.07076 11.7507 7.84949 11.3815 7.70158C11.0123 7.55367 10.6169 7.48218 10.2193 7.49144Z" fill="#F9F9FA"/>
</svg>
