<svg width="24" height="21" viewBox="0 0 24 21" fill="none" xmlns="http://www.w3.org/2000/svg">
<mask id="path-1-inside-1" fill="white">
<path fill-rule="evenodd" clip-rule="evenodd" d="M4.96435 10.5022C3.66869 10.6112 2.62656 10.9611 1.64077 11.6182C1.03423 12.0225 0.428205 12.9879 0.151753 13.9902C0.018241 14.4742 0.000627517 14.6397 6.53e-06 15.413C-0.000840271 16.4313 0.0804527 16.7996 0.371865 17.0977L0.39791 17.1244C0.473464 17.2019 0.532247 17.2622 0.600271 17.3092C0.838722 17.4737 1.19071 17.4737 2.77656 17.4735H2.77657L2.93203 17.4735C4.93872 17.4735 4.9674 17.4719 5.20501 17.345C5.33739 17.2742 5.5216 17.1116 5.6143 16.9837C5.76305 16.7783 5.78292 16.7046 5.78292 16.3578C5.78292 15.8841 5.65009 15.6057 5.31221 15.3714C5.16554 15.2696 4.9921 15.2134 4.81362 15.2098L3.69917 15.1871L2.31104 15.1589L2.32735 14.8574C2.36066 14.241 2.66303 13.7353 3.24015 13.3304C3.84239 12.9079 4.93098 12.7234 6.43214 12.7892C7.25511 12.8252 7.28605 12.8224 7.53298 12.6898C7.6727 12.6148 7.86323 12.4452 7.95638 12.3129C8.104 12.1033 8.12574 12.0237 8.12574 11.6922C8.12574 11.3704 8.10146 11.2751 7.96823 11.0738C7.7768 10.7845 7.54314 10.6351 7.16744 10.5617C6.74432 10.4792 5.60492 10.4483 4.96435 10.5022ZM13.4606 11.7162C11.4226 11.9686 9.86998 12.6511 8.68801 13.8142C8.17993 14.3141 7.80847 14.9201 7.48725 15.773C7.15525 16.6546 7.06396 17.2169 7.06007 18.405C7.05465 20.0612 7.19262 20.5674 7.73294 20.8734C7.8794 20.9564 8.04485 21 8.21318 21H15.2389H22.2646C22.4329 21 22.5983 20.9564 22.7447 20.8735C23.2799 20.5704 23.4207 20.0658 23.4181 18.4614C23.4167 17.5975 23.3945 17.3149 23.2899 16.8258C23.0318 15.6204 22.4992 14.5196 21.8679 13.8872C20.598 12.6151 19.0026 11.9259 16.7794 11.689C16.0421 11.6104 14.1923 11.6256 13.4606 11.7162ZM17.001 14.0497C17.9461 14.1697 18.9076 14.4761 19.543 14.86C20.1495 15.2263 20.812 16.1004 21.038 16.8323C21.1705 17.2616 21.268 17.9394 21.268 18.4315V18.7994H15.314H9.3599L9.39494 18.1556C9.46196 16.9239 9.79604 16.1046 10.5436 15.3382C11.2432 14.6211 12.3666 14.1795 13.8719 14.0301C14.3241 13.9852 16.6055 13.9995 17.001 14.0497Z"/>
</mask>
<path fill-rule="evenodd" clip-rule="evenodd" d="M4.96435 10.5022C3.66869 10.6112 2.62656 10.9611 1.64077 11.6182C1.03423 12.0225 0.428205 12.9879 0.151753 13.9902C0.018241 14.4742 0.000627517 14.6397 6.53e-06 15.413C-0.000840271 16.4313 0.0804527 16.7996 0.371865 17.0977L0.39791 17.1244C0.473464 17.2019 0.532247 17.2622 0.600271 17.3092C0.838722 17.4737 1.19071 17.4737 2.77656 17.4735H2.77657L2.93203 17.4735C4.93872 17.4735 4.9674 17.4719 5.20501 17.345C5.33739 17.2742 5.5216 17.1116 5.6143 16.9837C5.76305 16.7783 5.78292 16.7046 5.78292 16.3578C5.78292 15.8841 5.65009 15.6057 5.31221 15.3714C5.16554 15.2696 4.9921 15.2134 4.81362 15.2098L3.69917 15.1871L2.31104 15.1589L2.32735 14.8574C2.36066 14.241 2.66303 13.7353 3.24015 13.3304C3.84239 12.9079 4.93098 12.7234 6.43214 12.7892C7.25511 12.8252 7.28605 12.8224 7.53298 12.6898C7.6727 12.6148 7.86323 12.4452 7.95638 12.3129C8.104 12.1033 8.12574 12.0237 8.12574 11.6922C8.12574 11.3704 8.10146 11.2751 7.96823 11.0738C7.7768 10.7845 7.54314 10.6351 7.16744 10.5617C6.74432 10.4792 5.60492 10.4483 4.96435 10.5022ZM13.4606 11.7162C11.4226 11.9686 9.86998 12.6511 8.68801 13.8142C8.17993 14.3141 7.80847 14.9201 7.48725 15.773C7.15525 16.6546 7.06396 17.2169 7.06007 18.405C7.05465 20.0612 7.19262 20.5674 7.73294 20.8734C7.8794 20.9564 8.04485 21 8.21318 21H15.2389H22.2646C22.4329 21 22.5983 20.9564 22.7447 20.8735C23.2799 20.5704 23.4207 20.0658 23.4181 18.4614C23.4167 17.5975 23.3945 17.3149 23.2899 16.8258C23.0318 15.6204 22.4992 14.5196 21.8679 13.8872C20.598 12.6151 19.0026 11.9259 16.7794 11.689C16.0421 11.6104 14.1923 11.6256 13.4606 11.7162ZM17.001 14.0497C17.9461 14.1697 18.9076 14.4761 19.543 14.86C20.1495 15.2263 20.812 16.1004 21.038 16.8323C21.1705 17.2616 21.268 17.9394 21.268 18.4315V18.7994H15.314H9.3599L9.39494 18.1556C9.46196 16.9239 9.79604 16.1046 10.5436 15.3382C11.2432 14.6211 12.3666 14.1795 13.8719 14.0301C14.3241 13.9852 16.6055 13.9995 17.001 14.0497Z" fill="white"/>
<path d="M9.32221 18.6872L9.21737 18.6815L9.2113 18.7922H9.32221V18.6872ZM9.366 18.5822H9.32221V18.7922H9.366V18.5822ZM9.42705 18.693L9.46183 18.0579L9.25214 18.0464L9.21737 18.6815L9.42705 18.693ZM13.8096 14.0873C14.0273 14.0658 14.6991 14.058 15.3722 14.0622C16.0462 14.0664 16.7026 14.0825 16.8911 14.1062L16.9174 13.8979C16.7134 13.8722 16.0417 13.8564 15.3735 13.8522C14.7045 13.8481 14.0201 13.8554 13.789 13.8783L13.8096 14.0873ZM1.64077 11.6182L1.5243 11.4434L1.52429 11.4434L1.64077 11.6182ZM4.96435 10.5022L4.98195 10.7115L4.98196 10.7115L4.96435 10.5022ZM0.151753 13.9902L-0.0506871 13.9343L-0.0506884 13.9343L0.151753 13.9902ZM6.53e-06 15.413L0.210006 15.4131L0.210006 15.4131L6.53e-06 15.413ZM0.371865 17.0977L0.522179 16.951L0.522026 16.9509L0.371865 17.0977ZM0.39791 17.1244L0.548313 16.9778L0.548224 16.9777L0.39791 17.1244ZM0.600271 17.3092L0.719532 17.1363H0.719532L0.600271 17.3092ZM2.77656 17.4735V17.2635H2.77654L2.77656 17.4735ZM2.77657 17.4735V17.6835H2.77659L2.77657 17.4735ZM2.93203 17.4735V17.2635H2.93201L2.93203 17.4735ZM5.20501 17.345L5.30394 17.5302L5.30398 17.5302L5.20501 17.345ZM5.6143 16.9837L5.78437 17.1068L5.78437 17.1068L5.6143 16.9837ZM5.31221 15.3714L5.19251 15.5439L5.19253 15.544L5.31221 15.3714ZM4.81362 15.2098L4.80935 15.4198L4.81362 15.2098ZM3.69917 15.1871L3.6949 15.3971L3.69917 15.1871ZM2.31104 15.1589L2.10135 15.1476L2.08961 15.3645L2.30677 15.3689L2.31104 15.1589ZM2.32735 14.8574L2.53705 14.8687L2.53705 14.8687L2.32735 14.8574ZM3.24015 13.3304L3.36074 13.5024L3.36075 13.5024L3.24015 13.3304ZM6.43214 12.7892L6.44133 12.5794L6.44133 12.5794L6.43214 12.7892ZM7.53298 12.6898L7.43363 12.5048L7.43362 12.5048L7.53298 12.6898ZM7.95638 12.3129L7.78468 12.192L7.78468 12.192L7.95638 12.3129ZM7.96823 11.0738L7.7931 11.1897L7.79311 11.1897L7.96823 11.0738ZM7.16744 10.5617L7.2077 10.3556L7.20767 10.3556L7.16744 10.5617ZM8.68801 13.8142L8.8353 13.9639L8.8353 13.9639L8.68801 13.8142ZM13.4606 11.7162L13.4348 11.5078L13.4348 11.5078L13.4606 11.7162ZM7.48725 15.773L7.29072 15.699L7.29072 15.699L7.48725 15.773ZM7.06007 18.405L6.85007 18.4043V18.4043L7.06007 18.405ZM7.73294 20.8734L7.83644 20.6907L7.83643 20.6907L7.73294 20.8734ZM22.7447 20.8735L22.8482 21.0562L22.8482 21.0562L22.7447 20.8735ZM23.4181 18.4614L23.6281 18.4611V18.4611L23.4181 18.4614ZM23.2899 16.8258L23.4952 16.7818L23.4952 16.7818L23.2899 16.8258ZM21.8679 13.8872L22.0165 13.7388V13.7388L21.8679 13.8872ZM16.7794 11.689L16.7572 11.8978L16.7572 11.8978L16.7794 11.689ZM19.543 14.86L19.4344 15.0397L19.4344 15.0398L19.543 14.86ZM17.001 14.0497L17.0275 13.8413L17.0275 13.8413L17.001 14.0497ZM21.038 16.8323L21.2386 16.7703V16.7703L21.038 16.8323ZM21.268 18.7994V19.0094H21.478V18.7994H21.268ZM9.3599 18.7994L9.15021 18.788L9.13815 19.0094H9.3599V18.7994ZM9.39494 18.1556L9.60463 18.167L9.60463 18.167L9.39494 18.1556ZM10.5436 15.3382L10.6939 15.4849L10.5436 15.3382ZM13.8719 14.0301L13.8926 14.2391L13.8926 14.2391L13.8719 14.0301ZM1.75724 11.7929C2.7107 11.1574 3.7181 10.8178 4.98195 10.7115L4.94675 10.293C3.61928 10.4046 2.54241 10.7648 1.5243 11.4434L1.75724 11.7929ZM0.354194 14.046C0.486867 13.565 0.699084 13.0918 0.950339 12.6916C1.20308 12.289 1.48728 11.9729 1.75725 11.7929L1.52429 11.4434C1.18772 11.6678 0.865638 12.0365 0.59462 12.4683C0.322114 12.9024 0.0930921 13.413 -0.0506871 13.9343L0.354194 14.046ZM0.210006 15.4131C0.210318 15.0254 0.215034 14.8013 0.234862 14.6154C0.254238 14.4337 0.288532 14.2841 0.354195 14.046L-0.0506884 13.9343C-0.118538 14.1803 -0.159807 14.3555 -0.18277 14.5708C-0.205283 14.7819 -0.209684 15.0272 -0.209993 15.4128L0.210006 15.4131ZM0.522026 16.9509C0.297243 16.721 0.209154 16.4381 0.210006 15.4131L-0.209993 15.4128C-0.210835 16.4245 -0.136337 16.8783 0.221704 17.2445L0.522026 16.9509ZM0.548224 16.9777L0.522179 16.951L0.221551 17.2443L0.247596 17.271L0.548224 16.9777ZM0.719532 17.1363C0.671607 17.1033 0.627472 17.0591 0.548313 16.9778L0.247508 17.2709C0.319455 17.3448 0.392888 17.4212 0.481011 17.482L0.719532 17.1363ZM2.77654 17.2635C1.97963 17.2636 1.50413 17.2635 1.19676 17.2435C0.889708 17.2236 0.790116 17.185 0.719532 17.1363L0.481011 17.482C0.648877 17.5979 0.844505 17.6415 1.16952 17.6627C1.49422 17.6838 1.98764 17.6836 2.77658 17.6835L2.77654 17.2635ZM2.77657 17.2635H2.77656V17.6835H2.77657V17.2635ZM2.93201 17.2635L2.77656 17.2635L2.77659 17.6835L2.93204 17.6835L2.93201 17.2635ZM5.10608 17.1597C5.04842 17.1905 5.02015 17.2043 4.97766 17.2157C4.93095 17.2281 4.8592 17.2393 4.72006 17.2472C4.43998 17.263 3.93941 17.2635 2.93203 17.2635V17.6835C3.93133 17.6835 4.44845 17.6832 4.74378 17.6665C4.89235 17.6581 4.99774 17.645 5.08594 17.6215C5.17838 17.5968 5.24279 17.5628 5.30394 17.5302L5.10608 17.1597ZM5.44422 16.8605C5.36922 16.964 5.20886 17.1048 5.10604 17.1597L5.30398 17.5302C5.46592 17.4436 5.67398 17.2592 5.78437 17.1068L5.44422 16.8605ZM5.57292 16.3578C5.57292 16.5338 5.56695 16.6122 5.55162 16.6691C5.53842 16.7181 5.51528 16.7624 5.44422 16.8605L5.78437 17.1068C5.86207 16.9996 5.92324 16.9043 5.95716 16.7784C5.98896 16.6604 5.99292 16.5286 5.99292 16.3578H5.57292ZM5.19253 15.544C5.33881 15.6454 5.4285 15.7474 5.48475 15.8653C5.54213 15.9855 5.57292 16.1395 5.57292 16.3578H5.99292C5.99292 16.1023 5.95729 15.8803 5.86379 15.6844C5.76915 15.4861 5.62349 15.3317 5.4319 15.1988L5.19253 15.544ZM4.80935 15.4198C4.94651 15.4225 5.07979 15.4657 5.19251 15.5439L5.43192 15.1989C5.25129 15.0735 5.03769 15.0043 4.81789 14.9998L4.80935 15.4198ZM3.6949 15.3971L4.80935 15.4198L4.81789 14.9998L3.70344 14.9772L3.6949 15.3971ZM2.30677 15.3689L3.6949 15.3971L3.70344 14.9772L2.31531 14.949L2.30677 15.3689ZM2.11766 14.846L2.10135 15.1476L2.52073 15.1703L2.53705 14.8687L2.11766 14.846ZM3.11955 13.1585C2.49815 13.5944 2.15497 14.1556 2.11766 14.8461L2.53705 14.8687C2.56635 14.3264 2.8279 13.8761 3.36074 13.5024L3.11955 13.1585ZM6.44133 12.5794C4.93396 12.5133 3.78293 12.6931 3.11954 13.1585L3.36075 13.5024C3.90185 13.1228 4.92801 12.9335 6.42294 12.999L6.44133 12.5794ZM7.43362 12.5048C7.31868 12.5665 7.279 12.5846 7.17969 12.5936C7.05595 12.6048 6.86052 12.5977 6.44133 12.5794L6.42294 12.999C6.82673 13.0167 7.05826 13.0263 7.21746 13.0119C7.4011 12.9953 7.50035 12.9457 7.63233 12.8748L7.43362 12.5048ZM7.78468 12.192C7.70995 12.2981 7.544 12.4455 7.43363 12.5048L7.63232 12.8748C7.8014 12.784 8.01651 12.5923 8.12807 12.4338L7.78468 12.192ZM7.91574 11.6922C7.91574 11.859 7.90944 11.9358 7.89382 11.993C7.87987 12.0441 7.85511 12.092 7.78468 12.192L8.12807 12.4338C8.20527 12.3242 8.26519 12.2275 8.29901 12.1035C8.33117 11.9856 8.33574 11.8568 8.33574 11.6922H7.91574ZM7.79311 11.1897C7.85459 11.2826 7.87923 11.3339 7.89345 11.3897C7.90911 11.4512 7.91574 11.5323 7.91574 11.6922H8.33574C8.33574 11.5303 8.33022 11.4029 8.30045 11.286C8.26922 11.1634 8.21511 11.0664 8.14336 10.9579L7.79311 11.1897ZM7.12718 10.7678C7.29675 10.801 7.42247 10.8489 7.52381 10.9137C7.62423 10.9779 7.71058 11.065 7.7931 11.1897L8.14337 10.958C8.03446 10.7933 7.90826 10.661 7.75007 10.5599C7.59279 10.4593 7.41383 10.3959 7.2077 10.3556L7.12718 10.7678ZM4.98196 10.7115C5.29157 10.6854 5.72808 10.6795 6.14177 10.6907C6.55891 10.702 6.93426 10.7302 7.12721 10.7679L7.20767 10.3556C6.9775 10.3107 6.57159 10.2822 6.15311 10.2709C5.73118 10.2595 5.27771 10.2651 4.94674 10.293L4.98196 10.7115ZM8.8353 13.9639C9.97713 12.8403 11.4831 12.1727 13.4864 11.9246L13.4348 11.5078C11.3621 11.7645 9.76282 12.462 8.54072 13.6645L8.8353 13.9639ZM7.68378 15.847C7.99715 15.0149 8.35409 14.4373 8.8353 13.9639L8.54073 13.6645C8.00578 14.1908 7.61979 14.8252 7.29072 15.699L7.68378 15.847ZM7.27007 18.4057C7.2739 17.2364 7.36257 16.7 7.68378 15.847L7.29072 15.699C6.94793 16.6093 6.85403 17.1974 6.85007 18.4043L7.27007 18.4057ZM7.83643 20.6907C7.72056 20.625 7.63422 20.5534 7.56602 20.4641C7.49733 20.3741 7.43982 20.2567 7.39446 20.0903C7.30151 19.7493 7.26735 19.2353 7.27007 18.4057L6.85007 18.4043C6.84736 19.2309 6.87948 19.7981 6.98924 20.2007C7.04524 20.4062 7.12319 20.5762 7.23217 20.7189C7.34163 20.8623 7.47516 20.9687 7.62944 21.0561L7.83643 20.6907ZM8.21318 20.79C8.08113 20.79 7.95133 20.7558 7.83644 20.6907L7.62943 21.0561C7.80746 21.157 8.00857 21.21 8.21318 21.21V20.79ZM15.2389 20.79H8.21318V21.21H15.2389V20.79ZM22.2646 20.79H15.2389V21.21H22.2646V20.79ZM22.6412 20.6907C22.5264 20.7558 22.3966 20.79 22.2646 20.79V21.21C22.4692 21.21 22.6702 21.157 22.8482 21.0562L22.6412 20.6907ZM23.2081 18.4618C23.2094 19.2651 23.1739 19.7655 23.0808 20.099C22.9933 20.4125 22.8583 20.5678 22.6412 20.6907L22.8482 21.0562C23.1663 20.876 23.3693 20.6275 23.4853 20.2119C23.5958 19.8162 23.6294 19.2622 23.6281 18.4611L23.2081 18.4618ZM23.0845 16.8697C23.1847 17.3378 23.2067 17.6036 23.2081 18.4618L23.6281 18.4611C23.6267 17.5914 23.6044 17.2919 23.4952 16.7818L23.0845 16.8697ZM21.7193 14.0355C22.3131 14.6304 22.8318 15.6894 23.0845 16.8697L23.4952 16.7818C23.2318 15.5514 22.6853 14.4088 22.0165 13.7388L21.7193 14.0355ZM16.7572 11.8978C18.9445 12.1309 20.491 12.8051 21.7193 14.0355L22.0165 13.7388C20.7051 12.425 19.0607 11.7209 16.8017 11.4802L16.7572 11.8978ZM13.4864 11.9246C14.2021 11.836 16.0357 11.8209 16.7572 11.8978L16.8017 11.4802C16.0484 11.3999 14.1826 11.4152 13.4348 11.5078L13.4864 11.9246ZM19.6516 14.6802C18.985 14.2776 17.9937 13.964 17.0275 13.8413L16.9746 14.258C17.8985 14.3753 18.8301 14.6747 19.4344 15.0397L19.6516 14.6802ZM21.2386 16.7703C21.1166 16.3751 20.8808 15.952 20.6005 15.5822C20.3208 15.2131 19.9848 14.8815 19.6516 14.6802L19.4344 15.0398C19.7077 15.2048 20.0062 15.4934 20.2658 15.8359C20.5249 16.1777 20.7333 16.5575 20.8373 16.8942L21.2386 16.7703ZM21.478 18.4315C21.478 17.9204 21.3779 17.2215 21.2386 16.7703L20.8373 16.8942C20.9631 17.3017 21.058 17.9584 21.058 18.4315H21.478ZM21.478 18.7994V18.4315H21.058V18.7994H21.478ZM15.314 19.0094H21.268V18.5894H15.314V19.0094ZM9.3599 19.0094H15.314V18.5894H9.3599V19.0094ZM9.18525 18.1441L9.15021 18.788L9.56958 18.8108L9.60463 18.167L9.18525 18.1441ZM10.3933 15.1916C9.60486 15.9998 9.25459 16.87 9.18525 18.1442L9.60463 18.167C9.66934 16.9779 9.98722 16.2093 10.6939 15.4849L10.3933 15.1916ZM13.8511 13.8211C12.3208 13.973 11.1412 14.4249 10.3933 15.1916L10.6939 15.4849C11.3452 14.8172 12.4124 14.386 13.8926 14.2391L13.8511 13.8211ZM17.0275 13.8413C16.8141 13.8143 16.1295 13.7984 15.459 13.7942C14.7869 13.79 14.0908 13.7973 13.8511 13.8211L13.8926 14.2391C14.1053 14.2179 14.776 14.2099 15.4564 14.2142C16.1385 14.2185 16.7924 14.2349 16.9746 14.258L17.0275 13.8413Z" fill="#040959" mask="url(#path-1-inside-1)"/>
<mask id="path-3-inside-2" fill="white">
<path fill-rule="evenodd" clip-rule="evenodd" d="M5.85912 8.21446C7.82299 8.21446 9.41503 6.62243 9.41503 4.65856C9.41503 2.69469 7.82299 1.10266 5.85912 1.10266C3.89525 1.10266 2.30322 2.69469 2.30322 4.65856C2.30322 6.62243 3.89525 8.21446 5.85912 8.21446ZM5.83156 5.95419C6.53185 5.95419 7.09956 5.38649 7.09956 4.68619C7.09956 3.9859 6.53185 3.4182 5.83156 3.4182C5.13126 3.4182 4.56356 3.9859 4.56356 4.68619C4.56356 5.38649 5.13126 5.95419 5.83156 5.95419Z"/>
</mask>
<path fill-rule="evenodd" clip-rule="evenodd" d="M5.85912 8.21446C7.82299 8.21446 9.41503 6.62243 9.41503 4.65856C9.41503 2.69469 7.82299 1.10266 5.85912 1.10266C3.89525 1.10266 2.30322 2.69469 2.30322 4.65856C2.30322 6.62243 3.89525 8.21446 5.85912 8.21446ZM5.83156 5.95419C6.53185 5.95419 7.09956 5.38649 7.09956 4.68619C7.09956 3.9859 6.53185 3.4182 5.83156 3.4182C5.13126 3.4182 4.56356 3.9859 4.56356 4.68619C4.56356 5.38649 5.13126 5.95419 5.83156 5.95419Z" fill="white"/>
<path d="M9.20503 4.65856C9.20503 6.50645 7.70702 8.00446 5.85912 8.00446V8.42446C7.93897 8.42446 9.62503 6.73841 9.62503 4.65856H9.20503ZM5.85912 1.31266C7.70702 1.31266 9.20503 2.81067 9.20503 4.65856H9.62503C9.62503 2.57871 7.93897 0.892661 5.85912 0.892661V1.31266ZM2.51322 4.65856C2.51322 2.81067 4.01123 1.31266 5.85912 1.31266V0.892661C3.77927 0.892661 2.09322 2.57871 2.09322 4.65856H2.51322ZM5.85912 8.00446C4.01123 8.00446 2.51322 6.50645 2.51322 4.65856H2.09322C2.09322 6.73841 3.77927 8.42446 5.85912 8.42446V8.00446ZM6.88955 4.68619C6.88955 5.27051 6.41587 5.74419 5.83156 5.74419V6.16419C6.64783 6.16419 7.30956 5.50247 7.30956 4.68619H6.88955ZM5.83156 3.6282C6.41587 3.6282 6.88955 4.10188 6.88955 4.68619H7.30956C7.30956 3.86992 6.64783 3.2082 5.83156 3.2082V3.6282ZM4.77356 4.68619C4.77356 4.10188 5.24724 3.6282 5.83156 3.6282V3.2082C5.01528 3.2082 4.35356 3.86992 4.35356 4.68619H4.77356ZM5.83156 5.74419C5.24724 5.74419 4.77356 5.27051 4.77356 4.68619H4.35356C4.35356 5.50247 5.01528 6.16419 5.83156 6.16419V5.74419Z" fill="#040959" mask="url(#path-3-inside-2)"/>
<mask id="path-5-inside-3" fill="white">
<path fill-rule="evenodd" clip-rule="evenodd" d="M15.2864 9.31701C17.8593 9.31701 19.9449 7.23133 19.9449 4.65851C19.9449 2.08568 17.8593 0 15.2864 0C12.7136 0 10.6279 2.08568 10.6279 4.65851C10.6279 7.23133 12.7136 9.31701 15.2864 9.31701ZM15.2503 6.35579C16.1678 6.35579 16.9115 5.61206 16.9115 4.69462C16.9115 3.77718 16.1678 3.03344 15.2503 3.03344C14.3329 3.03344 13.5892 3.77718 13.5892 4.69462C13.5892 5.61206 14.3329 6.35579 15.2503 6.35579Z"/>
</mask>
<path fill-rule="evenodd" clip-rule="evenodd" d="M15.2864 9.31701C17.8593 9.31701 19.9449 7.23133 19.9449 4.65851C19.9449 2.08568 17.8593 0 15.2864 0C12.7136 0 10.6279 2.08568 10.6279 4.65851C10.6279 7.23133 12.7136 9.31701 15.2864 9.31701ZM15.2503 6.35579C16.1678 6.35579 16.9115 5.61206 16.9115 4.69462C16.9115 3.77718 16.1678 3.03344 15.2503 3.03344C14.3329 3.03344 13.5892 3.77718 13.5892 4.69462C13.5892 5.61206 14.3329 6.35579 15.2503 6.35579Z" fill="white"/>
<path d="M19.6049 4.65851C19.6049 7.04355 17.6715 8.97701 15.2864 8.97701V9.65701C18.047 9.65701 20.2849 7.41911 20.2849 4.65851H19.6049ZM15.2864 0.34C17.6715 0.34 19.6049 2.27346 19.6049 4.65851H20.2849C20.2849 1.89791 18.047 -0.34 15.2864 -0.34V0.34ZM10.9679 4.65851C10.9679 2.27346 12.9014 0.34 15.2864 0.34V-0.34C12.5258 -0.34 10.2879 1.89791 10.2879 4.65851H10.9679ZM15.2864 8.97701C12.9014 8.97701 10.9679 7.04355 10.9679 4.65851H10.2879C10.2879 7.41911 12.5258 9.65701 15.2864 9.65701V8.97701ZM16.5715 4.69462C16.5715 5.42428 15.98 6.01579 15.2503 6.01579V6.69579C16.3556 6.69579 17.2515 5.79983 17.2515 4.69462H16.5715ZM15.2503 3.37344C15.98 3.37344 16.5715 3.96495 16.5715 4.69462H17.2515C17.2515 3.5894 16.3556 2.69344 15.2503 2.69344V3.37344ZM13.9292 4.69462C13.9292 3.96495 14.5207 3.37344 15.2503 3.37344V2.69344C14.1451 2.69344 13.2492 3.5894 13.2492 4.69462H13.9292ZM15.2503 6.01579C14.5207 6.01579 13.9292 5.42428 13.9292 4.69462H13.2492C13.2492 5.79983 14.1451 6.69579 15.2503 6.69579V6.01579Z" fill="#040959" mask="url(#path-5-inside-3)"/>
</svg>
